<svg width="162" height="72" viewBox="0 0 162 72" fill="none" xmlns="http://www.w3.org/2000/svg">
<path d="M0.45 62.35C1.03667 62.0367 1.7 61.88 2.44 61.88C2.9 61.88 3.34333 61.9567 3.77 62.11C4.20333 62.2633 4.59333 62.4867 4.94 62.78C5.29333 63.0733 5.57333 63.46 5.78 63.94C5.99333 64.42 6.1 64.9633 6.1 65.57C6.1 66.1633 5.99333 66.6933 5.78 67.16C5.57333 67.6267 5.29 68 4.93 68.28C4.57667 68.5533 4.18667 68.7633 3.76 68.91C3.33333 69.05 2.88667 69.12 2.42 69.12C1.7 69.12 1.04333 68.9633 0.45 68.65V67.78C0.956667 68.14 1.57333 68.32 2.3 68.32C2.66667 68.32 3.01333 68.2767 3.34 68.19C3.66667 68.0967 3.97 67.9567 4.25 67.77C4.53 67.5833 4.76 67.33 4.94 67.01C5.12 66.69 5.22333 66.32 5.25 65.9H1.6V65.1H5.24C5.16667 64.3067 4.85 63.7067 4.29 63.3C3.73 62.8867 3.07333 62.68 2.32 62.68C1.57333 62.68 0.95 62.85 0.45 63.19V62.35ZM8.65094 64.94C8.6176 65.4667 8.5776 65.9267 8.53094 66.32C8.48427 66.7133 8.4176 67.0933 8.33094 67.46C8.24427 67.82 8.1376 68.1133 8.01094 68.34C7.89094 68.5667 7.7376 68.7467 7.55094 68.88C7.36427 69.0133 7.15094 69.08 6.91094 69.08C6.7176 69.08 6.52427 69.0433 6.33094 68.97V68.34C6.4376 68.38 6.54427 68.4 6.65094 68.4C7.05094 68.4 7.34094 68.05 7.52094 67.35C7.7076 66.6433 7.82427 65.5933 7.87094 64.2H11.4009V69H10.6009V64.94H8.65094ZM12.5487 66.6C12.5487 65.8133 12.7887 65.1967 13.2687 64.75C13.7553 64.3033 14.312 64.08 14.9387 64.08C15.5253 64.08 16.0087 64.2267 16.3887 64.52C16.7753 64.8133 17.0287 65.1767 17.1487 65.61C17.2687 66.0367 17.2753 66.4833 17.1687 66.95H13.3487C13.3953 67.4233 13.6053 67.78 13.9787 68.02C14.352 68.26 14.802 68.38 15.3287 68.38C15.9153 68.38 16.442 68.25 16.9087 67.99V68.77C16.462 69.0033 15.8953 69.12 15.2087 69.12C14.4487 69.12 13.8153 68.9033 13.3087 68.47C12.802 68.0367 12.5487 67.4133 12.5487 66.6ZM16.4587 66.25C16.4787 66.11 16.4687 65.9633 16.4287 65.81C16.3887 65.6567 16.3153 65.5033 16.2087 65.35C16.1087 65.1967 15.952 65.07 15.7387 64.97C15.5253 64.87 15.2753 64.82 14.9887 64.82C14.5553 64.82 14.1787 64.9467 13.8587 65.2C13.5453 65.4533 13.3753 65.8033 13.3487 66.25H16.4587ZM19.1377 69H18.3377V64.2H19.1377V66.2H20.1077L21.6277 64.2H22.5577L20.7377 66.59L22.7777 69H21.8377L20.0777 66.94H19.1377V69ZM25.572 69H24.772V64.94H23.002V64.2H27.332V64.94H25.572V69ZM28.96 65C29.5 64.3867 30.1467 64.08 30.9 64.08C31.5867 64.08 32.1567 64.32 32.61 64.8C33.07 65.28 33.3 65.88 33.3 66.6C33.3 67.32 33.07 67.92 32.61 68.4C32.1567 68.88 31.5867 69.12 30.9 69.12C30.14 69.12 29.52 68.84 29.04 68.28V71.2H28.24V64.2H28.96V65ZM32.01 67.89C32.3367 67.5633 32.5 67.1333 32.5 66.6C32.5 66.0667 32.3367 65.6367 32.01 65.31C31.69 64.9833 31.29 64.82 30.81 64.82C30.4033 64.82 30.0433 64.9333 29.73 65.16C29.4167 65.3867 29.1867 65.6667 29.04 66V67.2C29.1867 67.5333 29.4167 67.8133 29.73 68.04C30.0433 68.2667 30.4033 68.38 30.81 68.38C31.29 68.38 31.69 68.2167 32.01 67.89ZM34.8809 68.45C34.3743 67.9967 34.1209 67.38 34.1209 66.6C34.1209 65.82 34.3743 65.2067 34.8809 64.76C35.3876 64.3067 35.9876 64.08 36.6809 64.08C37.3809 64.08 37.9809 64.3067 38.4809 64.76C38.9876 65.2067 39.2409 65.82 39.2409 66.6C39.2409 67.38 38.9876 67.9967 38.4809 68.45C37.9809 68.8967 37.3809 69.12 36.6809 69.12C35.9876 69.12 35.3876 68.8967 34.8809 68.45ZM37.9409 67.89C38.2743 67.57 38.4409 67.14 38.4409 66.6C38.4409 66.06 38.2743 65.6333 37.9409 65.32C37.6076 65 37.1876 64.84 36.6809 64.84C36.1743 64.84 35.7543 65 35.4209 65.32C35.0876 65.6333 34.9209 66.06 34.9209 66.6C34.9209 67.14 35.0876 67.57 35.4209 67.89C35.7543 68.2033 36.1743 68.36 36.6809 68.36C37.1876 68.36 37.6076 68.2033 37.9409 67.89ZM41.1884 69H40.3884V64.2H41.1884V66.23H43.9684V64.2H44.7684V69H43.9684V66.97H41.1884V69ZM47.0478 69H46.2478V64.2H47.0478V66.23H49.8278V64.2H50.6278V69H49.8278V66.97H47.0478V69ZM56.0072 68C56.0072 68.2467 56.1305 68.37 56.3772 68.37C56.4839 68.37 56.6072 68.3467 56.7472 68.3V68.95C56.5472 69.0233 56.3472 69.06 56.1472 69.06C55.6872 69.06 55.3939 68.8667 55.2672 68.48C54.7539 68.9067 54.1305 69.12 53.3972 69.12C52.9305 69.12 52.5305 68.9967 52.1972 68.75C51.8705 68.4967 51.7072 68.1333 51.7072 67.66C51.7072 67.0933 51.9172 66.6833 52.3372 66.43C52.7639 66.17 53.2772 66.04 53.8772 66.04C54.3172 66.04 54.7605 66.09 55.2072 66.19V66.02C55.2072 65.6533 55.0872 65.3633 54.8472 65.15C54.6072 64.93 54.2705 64.82 53.8372 64.82C53.2305 64.82 52.6472 64.94 52.0872 65.18V64.4C52.7139 64.1867 53.3239 64.08 53.9172 64.08C54.5705 64.08 55.0805 64.2567 55.4472 64.61C55.8205 64.9567 56.0072 65.46 56.0072 66.12V68ZM52.5272 67.62C52.5272 67.8867 52.6272 68.09 52.8272 68.23C53.0339 68.3633 53.2805 68.43 53.5672 68.43C54.2272 68.43 54.7739 68.1967 55.2072 67.73V66.85C54.7539 66.7567 54.3472 66.71 53.9872 66.71C53.5805 66.71 53.2339 66.7833 52.9472 66.93C52.6672 67.07 52.5272 67.3 52.5272 67.62ZM58.0852 69H57.1452L58.5352 67.24C58.1686 67.1333 57.8852 66.9467 57.6852 66.68C57.4852 66.4133 57.3852 66.1067 57.3852 65.76C57.3852 65.32 57.5452 64.95 57.8652 64.65C58.1852 64.35 58.6252 64.2 59.1852 64.2H61.5452V69H60.7452V67.32H59.3952L58.0852 69ZM58.4652 65.14C58.2786 65.2867 58.1852 65.4933 58.1852 65.76C58.1852 66.0267 58.2786 66.2333 58.4652 66.38C58.6586 66.5267 58.9219 66.6 59.2552 66.6H60.7452V64.92H59.2552C58.9219 64.92 58.6586 64.9933 58.4652 65.14ZM70.2054 66.74C70.2054 67.48 69.9787 68.0633 69.5254 68.49C69.0787 68.91 68.4887 69.12 67.7554 69.12C67.0087 69.12 66.4054 68.8733 65.9454 68.38C65.4921 67.8867 65.2654 67.1967 65.2654 66.31C65.2654 65.5367 65.3987 64.87 65.6654 64.31C65.9321 63.75 66.2921 63.33 66.7454 63.05C67.0521 62.8633 67.3687 62.7167 67.6954 62.61C68.0287 62.4967 68.3021 62.4267 68.5154 62.4C68.7354 62.3733 68.9621 62.32 69.1954 62.24C69.4287 62.1533 69.6221 62.0333 69.7754 61.88V62.72C69.5887 62.8533 69.3587 62.9533 69.0854 63.02C68.8121 63.08 68.5087 63.1533 68.1754 63.24C67.8421 63.3267 67.5221 63.46 67.2154 63.64C66.9154 63.82 66.6821 64.0467 66.5154 64.32C66.3487 64.5933 66.2021 64.92 66.0754 65.3C66.2487 65.0333 66.4954 64.8167 66.8154 64.65C67.1354 64.4833 67.4787 64.4 67.8454 64.4C68.4921 64.4 69.0454 64.6167 69.5054 65.05C69.9721 65.4833 70.2054 66.0467 70.2054 66.74ZM66.0654 66.76C66.0654 67.22 66.2187 67.6033 66.5254 67.91C66.8321 68.21 67.2354 68.36 67.7354 68.36C68.2487 68.36 68.6554 68.21 68.9554 67.91C69.2554 67.61 69.4054 67.2267 69.4054 66.76C69.4054 66.2933 69.2554 65.91 68.9554 65.61C68.6554 65.31 68.2487 65.16 67.7354 65.16C67.2554 65.16 66.8554 65.3233 66.5354 65.65C66.2221 65.97 66.0654 66.34 66.0654 66.76ZM72.045 69H71.365V64.2H72.165V67.71L75.105 64.2H75.785V69H74.985V65.49L72.045 69ZM81.9534 66.74C81.9534 67.48 81.7268 68.0633 81.2734 68.49C80.8268 68.91 80.2368 69.12 79.5034 69.12C78.7568 69.12 78.1534 68.8733 77.6934 68.38C77.2401 67.8867 77.0134 67.1967 77.0134 66.31C77.0134 65.5367 77.1468 64.87 77.4134 64.31C77.6801 63.75 78.0401 63.33 78.4934 63.05C78.8001 62.8633 79.1168 62.7167 79.4434 62.61C79.7768 62.4967 80.0501 62.4267 80.2634 62.4C80.4834 62.3733 80.7101 62.32 80.9434 62.24C81.1768 62.1533 81.3701 62.0333 81.5234 61.88V62.72C81.3368 62.8533 81.1068 62.9533 80.8334 63.02C80.5601 63.08 80.2568 63.1533 79.9234 63.24C79.5901 63.3267 79.2701 63.46 78.9634 63.64C78.6634 63.82 78.4301 64.0467 78.2634 64.32C78.0968 64.5933 77.9501 64.92 77.8234 65.3C77.9968 65.0333 78.2434 64.8167 78.5634 64.65C78.8834 64.4833 79.2268 64.4 79.5934 64.4C80.2401 64.4 80.7934 64.6167 81.2534 65.05C81.7201 65.4833 81.9534 66.0467 81.9534 66.74ZM77.8134 66.76C77.8134 67.22 77.9668 67.6033 78.2734 67.91C78.5801 68.21 78.9834 68.36 79.4834 68.36C79.9968 68.36 80.4034 68.21 80.7034 67.91C81.0034 67.61 81.1534 67.2267 81.1534 66.76C81.1534 66.2933 81.0034 65.91 80.7034 65.61C80.4034 65.31 79.9968 65.16 79.4834 65.16C79.0034 65.16 78.6034 65.3233 78.2834 65.65C77.9701 65.97 77.8134 66.34 77.8134 66.76ZM84.7252 64.94C84.6918 65.4667 84.6518 65.9267 84.6052 66.32C84.5585 66.7133 84.4918 67.0933 84.4052 67.46C84.3185 67.82 84.2118 68.1133 84.0852 68.34C83.9652 68.5667 83.8118 68.7467 83.6252 68.88C83.4385 69.0133 83.2252 69.08 82.9852 69.08C82.7918 69.08 82.5985 69.0433 82.4052 68.97V68.34C82.5118 68.38 82.6185 68.4 82.7252 68.4C83.1252 68.4 83.4152 68.05 83.5952 67.35C83.7818 66.6433 83.8985 65.5933 83.9452 64.2H87.4752V69H86.6752V64.94H84.7252ZM89.6329 69H88.9529V64.2H89.7529V67.71L92.6929 64.2H93.3729V69H92.5729V65.49L89.6329 69ZM95.2813 68.45C94.7747 67.9967 94.5213 67.38 94.5213 66.6C94.5213 65.82 94.7747 65.2067 95.2813 64.76C95.788 64.3067 96.388 64.08 97.0813 64.08C97.7813 64.08 98.3813 64.3067 98.8813 64.76C99.388 65.2067 99.6413 65.82 99.6413 66.6C99.6413 67.38 99.388 67.9967 98.8813 68.45C98.3813 68.8967 97.7813 69.12 97.0813 69.12C96.388 69.12 95.788 68.8967 95.2813 68.45ZM98.3413 67.89C98.6747 67.57 98.8413 67.14 98.8413 66.6C98.8413 66.06 98.6747 65.6333 98.3413 65.32C98.008 65 97.588 64.84 97.0813 64.84C96.5747 64.84 96.1547 65 95.8213 65.32C95.488 65.6333 95.3213 66.06 95.3213 66.6C95.3213 67.14 95.488 67.57 95.8213 67.89C96.1547 68.2033 96.5747 68.36 97.0813 68.36C97.588 68.36 98.008 68.2033 98.3413 67.89ZM102.633 69H101.833V64.94H100.063V64.2H104.393V64.94H102.633V69ZM104.814 66.6C104.814 65.8133 105.054 65.1967 105.534 64.75C106.021 64.3033 106.578 64.08 107.204 64.08C107.791 64.08 108.274 64.2267 108.654 64.52C109.041 64.8133 109.294 65.1767 109.414 65.61C109.534 66.0367 109.541 66.4833 109.434 66.95H105.614C105.661 67.4233 105.871 67.78 106.244 68.02C106.618 68.26 107.068 68.38 107.594 68.38C108.181 68.38 108.708 68.25 109.174 67.99V68.77C108.728 69.0033 108.161 69.12 107.474 69.12C106.714 69.12 106.081 68.9033 105.574 68.47C105.068 68.0367 104.814 67.4133 104.814 66.6ZM108.724 66.25C108.744 66.11 108.734 65.9633 108.694 65.81C108.654 65.6567 108.581 65.5033 108.474 65.35C108.374 65.1967 108.218 65.07 108.004 64.97C107.791 64.87 107.541 64.82 107.254 64.82C106.821 64.82 106.444 64.9467 106.124 65.2C105.811 65.4533 105.641 65.8033 105.614 66.25H108.724ZM111.403 69H110.603V64.2H111.403V66.2H112.373L113.893 64.2H114.823L113.003 66.59L115.043 69H114.103L112.343 66.94H111.403V69ZM119.699 68C119.699 68.2467 119.822 68.37 120.069 68.37C120.175 68.37 120.299 68.3467 120.439 68.3V68.95C120.239 69.0233 120.039 69.06 119.839 69.06C119.379 69.06 119.085 68.8667 118.959 68.48C118.445 68.9067 117.822 69.12 117.089 69.12C116.622 69.12 116.222 68.9967 115.889 68.75C115.562 68.4967 115.399 68.1333 115.399 67.66C115.399 67.0933 115.609 66.6833 116.029 66.43C116.455 66.17 116.969 66.04 117.569 66.04C118.009 66.04 118.452 66.09 118.899 66.19V66.02C118.899 65.6533 118.779 65.3633 118.539 65.15C118.299 64.93 117.962 64.82 117.529 64.82C116.922 64.82 116.339 64.94 115.779 65.18V64.4C116.405 64.1867 117.015 64.08 117.609 64.08C118.262 64.08 118.772 64.2567 119.139 64.61C119.512 64.9567 119.699 65.46 119.699 66.12V68ZM116.219 67.62C116.219 67.8867 116.319 68.09 116.519 68.23C116.725 68.3633 116.972 68.43 117.259 68.43C117.919 68.43 118.465 68.1967 118.899 67.73V66.85C118.445 66.7567 118.039 66.71 117.679 66.71C117.272 66.71 116.925 66.7833 116.639 66.93C116.359 67.07 116.219 67.3 116.219 67.62Z" fill="white"/>
<path fill-rule="evenodd" clip-rule="evenodd" d="M9.97497 17.9183C9.97497 18.791 9.31277 19.4975 8.49615 19.4975C7.67952 19.4975 7.01732 18.791 7.01732 17.9183C7.01732 17.0462 7.67952 16.3391 8.49615 16.3391C9.31277 16.3391 9.97497 17.0462 9.97497 17.9183ZM17.0801 7.72126C17.0801 9.02934 16.0868 10.0901 14.8619 10.0901C13.6369 10.0901 12.6443 9.02934 12.6443 7.72126C12.6443 6.41319 13.6369 5.35247 14.8619 5.35247C16.0868 5.35247 17.0801 6.41319 17.0801 7.72126ZM23.4462 11.1204C23.4462 12.4285 22.453 13.4892 21.228 13.4892C20.0031 13.4892 19.0104 12.4285 19.0104 11.1204C19.0104 9.8123 20.0031 8.75159 21.228 8.75159C22.453 8.75159 23.4462 9.8123 23.4462 11.1204ZM29.8124 14.5191C29.8124 15.8279 28.8191 16.8879 27.5941 16.8879C26.3692 16.8879 25.3759 15.8279 25.3759 14.5191C25.3759 13.2111 26.3692 12.151 27.5941 12.151C28.8191 12.151 29.8124 13.2111 29.8124 14.5191ZM23.4462 17.9185C23.4462 19.2265 22.453 20.2873 21.228 20.2873C20.0031 20.2873 19.0104 19.2265 19.0104 17.9185C19.0104 16.6104 20.0031 15.5497 21.228 15.5497C22.453 15.5497 23.4462 16.6104 23.4462 17.9185ZM36.1779 17.9185C36.1779 19.2265 35.1846 20.2873 33.9596 20.2873C32.7347 20.2873 31.742 19.2265 31.742 17.9185C31.742 16.6104 32.7347 15.5497 33.9596 15.5497C35.1846 15.5497 36.1779 16.6104 36.1779 17.9185ZM35.4388 24.7164C35.4388 25.5884 34.7766 26.2955 33.9599 26.2955C33.1433 26.2955 32.4805 25.5884 32.4805 24.7164C32.4805 23.8443 33.1433 23.1372 33.9599 23.1372C34.7766 23.1372 35.4388 23.8443 35.4388 24.7164ZM41.805 21.3174C41.805 22.1894 41.1428 22.8966 40.3269 22.8966C39.5096 22.8966 38.8474 22.1894 38.8474 21.3174C38.8474 20.4453 39.5096 19.7382 40.3269 19.7382C41.1428 19.7382 41.805 20.4453 41.805 21.3174ZM42.5443 14.5194C42.5443 15.8274 41.551 16.8875 40.3267 16.8875C39.1018 16.8875 38.1085 15.8274 38.1085 14.5194C38.1085 13.2113 39.1018 12.1513 40.3267 12.1513C41.551 12.1513 42.5443 13.2113 42.5443 14.5194ZM36.1779 11.1202C36.1779 12.4283 35.1846 13.489 33.9596 13.489C32.7347 13.489 31.742 12.4283 31.742 11.1202C31.742 9.81216 32.7347 8.75145 33.9596 8.75145C35.1846 8.75145 36.1779 9.81216 36.1779 11.1202ZM29.073 21.3174C29.073 22.1894 28.4108 22.8966 27.5942 22.8966C26.7776 22.8966 26.1154 22.1894 26.1154 21.3174C26.1154 20.4453 26.7776 19.7382 27.5942 19.7382C28.4108 19.7382 29.073 20.4453 29.073 21.3174ZM42.5443 7.72112C42.5443 9.0292 41.551 10.0899 40.3261 10.0899C39.1018 10.0899 38.1085 9.0292 38.1085 7.72112C38.1085 6.41305 39.1018 5.35233 40.3261 5.35233C41.551 5.35233 42.5443 6.41305 42.5443 7.72112ZM48.1711 4.32201C48.1711 5.19406 47.5089 5.90121 46.6923 5.90121C45.8757 5.90121 45.2135 5.19406 45.2135 4.32201C45.2135 3.44996 45.8757 2.74281 46.6923 2.74281C47.5089 2.74281 48.1711 3.44996 48.1711 4.32201ZM48.1711 17.9185C48.1711 18.7905 47.5089 19.4977 46.6923 19.4977C45.8757 19.4977 45.2135 18.7905 45.2135 17.9185C45.2135 17.0464 45.8757 16.3393 46.6923 16.3393C47.5089 16.3393 48.1711 17.0464 48.1711 17.9185ZM29.073 7.72126C29.073 8.59332 28.4108 9.30046 27.5942 9.30046C26.7776 9.30046 26.1154 8.59332 26.1154 7.72126C26.1154 6.84921 26.7776 6.14207 27.5942 6.14207C28.4108 6.14207 29.073 6.84921 29.073 7.72126ZM22.7069 24.7165C22.7069 25.5885 22.0454 26.2957 21.2281 26.2957C20.4115 26.2957 19.7493 25.5885 19.7493 24.7165C19.7493 23.8444 20.4115 23.1373 21.2281 23.1373C22.0454 23.1373 22.7069 23.8444 22.7069 24.7165ZM17.0801 14.5191C17.0801 15.8272 16.0868 16.8879 14.8619 16.8879C13.6376 16.8879 12.6443 15.8272 12.6443 14.5191C12.6443 13.2111 13.6376 12.151 14.8619 12.151C16.0868 12.151 17.0801 13.2111 17.0801 14.5191ZM2.99441 21.3174C2.99441 21.8275 2.60703 22.2404 2.13002 22.2404C1.653 22.2404 1.26562 21.8275 1.26562 21.3174C1.26562 20.808 1.653 20.3943 2.13002 20.3943C2.60703 20.3943 2.99441 20.808 2.99441 21.3174ZM2.99441 14.5194C2.99441 15.0288 2.60703 15.4424 2.13002 15.4424C1.653 15.4424 1.26562 15.0288 1.26562 14.5194C1.26562 14.0093 1.653 13.5963 2.13002 13.5963C2.60703 13.5963 2.99441 14.0093 2.99441 14.5194ZM15.7266 21.2694C15.7266 21.7795 15.3392 22.1925 14.8622 22.1925C14.3845 22.1925 13.9978 21.7795 13.9978 21.2694C13.9978 20.76 14.3845 20.3464 14.8622 20.3464C15.3392 20.3464 15.7266 20.76 15.7266 21.2694Z" fill="white"/>
<mask id="mask0" mask-type="alpha" maskUnits="userSpaceOnUse" x="20" y="0" width="4" height="3">
<path d="M23.5218 0H20.8612V2.84132H23.5218V0Z" fill="white"/>
</mask>
<g mask="url(#mask0)">
<path fill-rule="evenodd" clip-rule="evenodd" d="M23.522 1.42075C23.522 2.20582 22.9268 2.8414 22.1916 2.8414C21.4565 2.8414 20.8613 2.20582 20.8613 1.42075C20.8613 0.635685 21.4565 0.000102997 22.1916 0.000102997C22.9268 0.000102997 23.522 0.635685 23.522 1.42075Z" fill="white"/>
</g>
<path fill-rule="evenodd" clip-rule="evenodd" d="M28.4136 28.1157C28.4136 28.6251 28.0263 29.0388 27.5492 29.0388C27.0716 29.0388 26.6842 28.6251 26.6842 28.1157C26.6842 27.6063 27.0716 27.1927 27.5492 27.1927C28.0263 27.1927 28.4136 27.6063 28.4136 28.1157ZM9.36025 4.32206C9.36025 4.83146 8.97353 5.24512 8.49586 5.24512C8.01819 5.24512 7.63147 4.83146 7.63147 4.32206C7.63147 3.81197 8.01819 3.399 8.49586 3.399C8.97353 3.399 9.36025 3.81197 9.36025 4.32206ZM22.0923 4.32206C22.0923 4.83146 21.7049 5.24512 21.2279 5.24512C20.7502 5.24512 20.3635 4.83146 20.3635 4.32206C20.3635 3.81197 20.7502 3.399 21.2279 3.399C21.7049 3.399 22.0923 3.81197 22.0923 4.32206Z" fill="white"/>
<path fill-rule="evenodd" clip-rule="evenodd" d="M28.4139 28.1157C28.4139 28.6251 28.0265 29.0387 27.5495 29.0387C27.0718 29.0387 26.6844 28.6251 26.6844 28.1157C26.6844 27.6063 27.0718 27.1926 27.5495 27.1926C28.0265 27.1926 28.4139 27.6063 28.4139 28.1157ZM60.289 11.1202C60.289 11.6296 59.9023 12.0433 59.4246 12.0433C58.9469 12.0433 58.5595 11.6296 58.5595 11.1202C58.5595 10.6108 58.9469 10.1972 59.4246 10.1972C59.9023 10.1972 60.289 10.6108 60.289 11.1202ZM47.5567 24.7163C47.5567 25.2264 47.17 25.6394 46.6923 25.6394C46.2153 25.6394 45.8279 25.2264 45.8279 24.7163C45.8279 24.2069 46.2153 23.7933 46.6923 23.7933C47.17 23.7933 47.5567 24.2069 47.5567 24.7163ZM55.2765 7.72125C55.2765 9.02933 54.2833 10.0893 53.0583 10.0893C51.8334 10.0893 50.8401 9.02933 50.8401 7.72125C50.8401 6.41317 51.8334 5.35315 53.0583 5.35315C54.2833 5.35315 55.2765 6.41317 55.2765 7.72125ZM48.9104 11.1204C48.9104 12.4284 47.9171 13.4885 46.6922 13.4885C45.4672 13.4885 44.4746 12.4284 44.4746 11.1204C44.4746 9.81229 45.4672 8.75157 46.6922 8.75157C47.9171 8.75157 48.9104 9.81229 48.9104 11.1204ZM53.9228 21.3174C53.9228 21.8275 53.5361 22.2404 53.0584 22.2404C52.5808 22.2404 52.1941 21.8275 52.1941 21.3174C52.1941 20.808 52.5808 20.3943 53.0584 20.3943C53.5361 20.3943 53.9228 20.808 53.9228 21.3174ZM54.5369 14.5193C54.5369 15.3914 53.8754 16.0985 53.0581 16.0985C52.2422 16.0985 51.5793 15.3914 51.5793 14.5193C51.5793 13.6473 52.2422 12.9401 53.0581 12.9401C53.8754 12.9401 54.5369 13.6473 54.5369 14.5193ZM34.8244 4.322C34.8244 4.83139 34.4377 5.24506 33.9601 5.24506C33.4824 5.24506 33.0957 4.83139 33.0957 4.322C33.0957 3.8119 33.4824 3.39893 33.9601 3.39893C34.4377 3.39893 34.8244 3.8119 34.8244 4.322ZM53.9228 0.923229C53.9228 1.43262 53.5361 1.84629 53.0584 1.84629C52.5808 1.84629 52.1941 1.43262 52.1941 0.923229C52.1941 0.413135 52.5808 0.000167847 53.0584 0.000167847C53.5361 0.000167847 53.9228 0.413135 53.9228 0.923229ZM60.289 4.322C60.289 4.83139 59.9023 5.24506 59.4246 5.24506C58.9469 5.24506 58.5595 4.83139 58.5595 4.322C58.5595 3.8119 58.9469 3.39893 59.4246 3.39893C59.9023 3.39893 60.289 3.8119 60.289 4.322Z" fill="white"/>
<path fill-rule="evenodd" clip-rule="evenodd" d="M10.7145 11.1202C10.7145 12.4283 9.7212 13.489 8.49627 13.489C7.27133 13.489 6.27869 12.4283 6.27869 11.1202C6.27869 9.81216 7.27133 8.75144 8.49627 8.75144C9.7212 8.75144 10.7145 9.81216 10.7145 11.1202Z" fill="#EC1947"/>
<path fill-rule="evenodd" clip-rule="evenodd" d="M8.58911 41.0435C8.75561 40.6318 8.78572 40.2949 8.68224 40.0433C8.60228 39.8511 8.44424 39.7064 8.21188 39.6132C7.6437 39.3986 7.19216 39.6782 6.89113 40.4337L4.76983 45.7434L1.84517 40.3211C1.67208 39.9851 1.46418 39.7579 1.22618 39.6462C0.984418 39.5316 0.717257 39.5491 0.433163 39.7015C0.168823 39.854 0.024895 40.089 0.00325868 40.3997C-0.0174369 40.7017 0.0606419 41.0037 0.231851 41.296L3.8263 47.7438C3.66732 48.1682 3.49799 48.4886 3.32114 48.6954C3.14617 48.9013 2.94391 49.0013 2.70309 49.0013C2.59397 49.0013 2.49143 48.9906 2.39736 48.9702C2.30329 48.9499 2.19229 48.9139 2.06717 48.8615C1.93359 48.8071 1.8414 48.7741 1.79249 48.7644C1.25158 48.5818 0.882821 48.7391 0.705968 49.2198C0.507479 49.7646 0.700324 50.2064 1.27698 50.5317C1.65702 50.7492 2.16783 50.8599 2.79528 50.8599C3.49329 50.8599 4.07559 50.5861 4.52525 50.0452C4.96738 49.514 5.43679 48.6498 5.92314 47.4768L8.58911 41.0435ZM11.5068 50.7001C11.8135 50.7001 12.0581 50.602 12.2349 50.4078C12.4108 50.2146 12.5002 49.9631 12.5002 49.6581V45.9157H17.3025V49.6581C17.3025 49.9621 17.3891 50.2146 17.5593 50.4068C17.7315 50.601 17.9789 50.7001 18.2959 50.7001C18.6016 50.7001 18.8472 50.602 19.024 50.4068C19.1999 50.2146 19.2893 49.9621 19.2893 49.6581V40.5866C19.2893 40.2826 19.1999 40.0282 19.025 39.8301C18.8481 39.6301 18.6026 39.5291 18.2959 39.5291C17.9789 39.5291 17.7305 39.631 17.5593 39.8311C17.3891 40.0292 17.3025 40.2826 17.3025 40.5866V44.0736H12.5002V40.5866C12.5002 40.2826 12.4108 40.0282 12.2349 39.8301C12.0581 39.6301 11.8135 39.5291 11.5068 39.5291C11.1898 39.5291 10.9414 39.631 10.7693 39.8311C10.6 40.0292 10.5134 40.2836 10.5134 40.5866V49.6581C10.5134 49.9621 10.6 50.2136 10.7702 50.4068C10.9424 50.601 11.1898 50.7001 11.5068 50.7001ZM23.0544 50.7001C23.3733 50.7001 23.6818 50.503 23.9735 50.1136L28.8962 43.1705V49.6581C28.8962 49.9514 28.9827 50.2 29.153 50.3981C29.3252 50.5981 29.5782 50.7001 29.9056 50.7001C30.2226 50.7001 30.4681 50.601 30.6356 50.4059C30.8002 50.2136 30.883 49.9621 30.883 49.6581V40.5866C30.883 39.8845 30.565 39.5291 29.9366 39.5291C29.5763 39.5291 29.2565 39.7213 28.9865 40.1001L24.0939 47.0887V40.5866C24.0939 40.2836 24.0083 40.0292 23.838 39.8311C23.6658 39.631 23.4175 39.5291 23.1005 39.5291C22.7731 39.5291 22.5229 39.631 22.3554 39.832C22.1908 40.0301 22.108 40.2836 22.108 40.5866V49.6581C22.108 49.9834 22.1918 50.2408 22.3573 50.4233C22.5238 50.6069 22.759 50.7001 23.0544 50.7001ZM39.0386 48.6762C38.6642 48.9345 38.0942 49.0656 37.3454 49.0656C36.6737 49.0656 36.0914 49.0355 35.6107 48.9763V45.7718H37.3303C38.8514 45.7718 39.5918 46.3059 39.5918 47.4022C39.5918 47.9955 39.4055 48.4237 39.0386 48.6762ZM37.129 44.2016H35.6107V41.2535C36.081 41.2049 36.5401 41.1797 36.9738 41.1797C38.3914 41.1797 39.08 41.6458 39.08 42.6023C39.08 43.6782 38.4413 44.2016 37.129 44.2016ZM39.8062 44.7192C40.1854 44.5114 40.4939 44.2094 40.7244 43.8209C40.9821 43.3849 41.1138 42.9111 41.1138 42.411C41.1138 40.4456 39.778 39.4493 37.144 39.4493C36.2156 39.4493 35.3727 39.5143 34.638 39.6425C34.0162 39.7542 33.702 40.1368 33.702 40.7786V49.5152C33.702 50.1464 34.0124 50.5134 34.6229 50.6028C35.3558 50.7203 36.2457 50.7805 37.2682 50.7805C40.159 50.7805 41.6246 49.6172 41.6246 47.3226C41.6246 46.6817 41.4487 46.1214 41.0997 45.6582C40.7818 45.2348 40.3462 44.9192 39.8062 44.7192ZM51.068 50.4502C51.2402 50.2832 51.3277 50.0599 51.3277 49.787C51.3277 49.5025 51.2402 49.2743 51.068 49.1063C50.8959 48.9412 50.6654 48.8577 50.3813 48.8577H45.9647V45.8834H49.3588C49.6532 45.8834 49.8893 45.7969 50.0615 45.6251C50.2336 45.4532 50.3211 45.2279 50.3211 44.955C50.3211 44.6695 50.2327 44.4433 50.0596 44.2821C49.8884 44.1219 49.6523 44.0413 49.3588 44.0413H45.9647V41.3718H50.2261C50.5102 41.3718 50.7416 41.2874 50.9128 41.1223C51.0859 40.9553 51.1725 40.7319 51.1725 40.4581C51.1725 40.1736 51.0859 39.9454 50.9128 39.7784C50.7416 39.6133 50.5102 39.5288 50.2261 39.5288H44.9873C44.6703 39.5288 44.42 39.6307 44.2432 39.8298C44.0673 40.0289 43.9779 40.2833 43.9779 40.5863V49.6423C43.9779 49.9463 44.0701 50.2016 44.2517 50.3997C44.4332 50.5988 44.6863 50.6998 45.0023 50.6998H50.3813C50.6654 50.6998 50.8959 50.6163 51.068 50.4502ZM55.2805 41.3478C55.7114 41.2895 56.1432 41.2594 56.5655 41.2594C57.9935 41.2594 58.6878 41.8615 58.6878 43.0986C58.6878 44.4221 57.9578 45.065 56.4564 45.065C55.9663 45.065 55.5712 45.0465 55.2805 45.0096V41.3478ZM60.7677 43.05C60.7677 41.8187 60.3914 40.8991 59.6501 40.3184C58.9135 39.7416 57.891 39.4494 56.6126 39.4494C55.702 39.4494 54.8948 39.5193 54.2128 39.6581C53.6023 39.7824 53.2938 40.1806 53.2938 40.8419V49.659C53.2938 49.962 53.3794 50.2135 53.5506 50.4067C53.7227 50.6019 53.9701 50.7 54.2871 50.7C54.5929 50.7 54.8384 50.6019 55.0152 50.4077C55.1912 50.2145 55.2805 49.963 55.2805 49.659V46.7905C55.5891 46.8371 56.0209 46.8604 56.5655 46.8604C57.8045 46.8604 58.8242 46.5371 59.5965 45.902C60.3735 45.2621 60.7677 44.3027 60.7677 43.05ZM69.5073 48.3381C68.7661 48.7887 68.037 49.0169 67.3381 49.0169C66.4632 49.0169 65.7304 48.6673 65.1622 47.9759C64.5912 47.2826 64.3015 46.3144 64.3015 45.0987C64.3015 43.9246 64.5714 42.9711 65.102 42.2661C65.9646 41.1222 67.386 40.8979 69.3004 41.6553C69.9448 41.9039 70.369 41.801 70.5581 41.3659C70.7792 40.8765 70.6465 40.456 70.1649 40.1172C69.4754 39.6209 68.4989 39.3694 67.2609 39.3694C65.689 39.3694 64.4426 39.8958 63.5555 40.9348C62.6703 41.9719 62.2225 43.378 62.2225 45.1142C62.2225 46.8718 62.6449 48.2827 63.4765 49.3082C64.3127 50.3385 65.5648 50.8599 67.1988 50.8599C68.4886 50.8599 69.5647 50.5385 70.3991 49.9025C70.6691 49.6917 70.8356 49.447 70.8958 49.1771C70.957 48.9023 70.9137 48.6634 70.7698 48.4692C70.4941 48.0594 70.0661 48.0099 69.5073 48.3381ZM80.8859 39.5289C80.5256 39.5289 80.2057 39.7212 79.9358 40.0999L75.0441 47.0885V40.5864C75.0441 40.2834 74.9575 40.029 74.7873 39.8309C74.6151 39.6308 74.3668 39.5289 74.0497 39.5289C73.7224 39.5289 73.4721 39.6308 73.3047 39.8319C73.1401 40.0299 73.0564 40.2834 73.0564 40.5864V49.6589C73.0564 49.9832 73.141 50.2406 73.3066 50.4231C73.4731 50.6067 73.7083 50.6999 74.0036 50.6999C74.3225 50.6999 74.632 50.5028 74.9227 50.1134L79.8464 43.1703V49.6589C79.8464 49.9512 79.932 50.2008 80.1023 50.3979C80.2744 50.5979 80.5275 50.6999 80.8548 50.6999C81.1718 50.6999 81.4174 50.6008 81.5848 50.4057C81.7494 50.2134 81.8322 49.9619 81.8322 49.6589V40.5864C81.8322 39.8843 81.5133 39.5289 80.8859 39.5289ZM92.8225 40.4424C92.8225 40.1578 92.7341 39.9316 92.561 39.7694C92.3898 39.6102 92.1537 39.5286 91.8602 39.5286H84.5132C84.2291 39.5286 83.9987 39.6102 83.8265 39.7694C83.6534 39.9316 83.5659 40.1578 83.5659 40.4424C83.5659 40.7152 83.6525 40.9415 83.8256 41.1134C83.9968 41.2852 84.2282 41.3717 84.5132 41.3717H87.1933V49.6586C87.1933 49.9616 87.2789 50.2141 87.4501 50.4063C87.6213 50.6015 87.8697 50.6996 88.1867 50.6996C88.5028 50.6996 88.7511 50.6015 88.9223 50.4063C89.0936 50.2141 89.1792 49.9626 89.1792 49.6586V41.3717H91.8602C92.1546 41.3717 92.3917 41.2852 92.5629 41.1134C92.735 40.9415 92.8225 40.7152 92.8225 40.4424ZM100.959 48.8573H96.542V45.8839H99.9351C100.231 45.8839 100.467 45.7965 100.638 45.6256C100.81 45.4538 100.897 45.2275 100.897 44.9546C100.897 44.6701 100.81 44.4429 100.637 44.2817C100.465 44.1225 100.23 44.0409 99.9351 44.0409H96.542V41.3715H100.803C101.088 41.3715 101.319 41.2879 101.49 41.1219C101.663 40.9558 101.75 40.7325 101.75 40.4587C101.75 40.1741 101.663 39.945 101.49 39.7789C101.319 39.6129 101.088 39.5294 100.803 39.5294H95.5646C95.2476 39.5294 94.9973 39.6304 94.8205 39.8304C94.6446 40.0285 94.5552 40.2829 94.5552 40.5868V49.6429C94.5552 49.9468 94.6474 50.2013 94.828 50.3993C95.0105 50.5984 95.2636 50.7004 95.5797 50.7004H100.959C101.243 50.7004 101.473 50.6159 101.644 50.4498C101.817 50.2838 101.905 50.0605 101.905 49.7866C101.905 49.5031 101.817 49.2739 101.644 49.1069C101.473 48.9408 101.243 48.8573 100.959 48.8573ZM111.887 40.4424C111.887 40.1578 111.8 39.9316 111.627 39.7694C111.455 39.6102 111.22 39.5286 110.925 39.5286H103.578C103.295 39.5286 103.065 39.6102 102.892 39.7694C102.719 39.9316 102.631 40.1578 102.631 40.4424C102.631 40.7152 102.718 40.9415 102.891 41.1134C103.063 41.2852 103.294 41.3717 103.578 41.3717H106.258V49.6586C106.258 49.9616 106.345 50.2141 106.515 50.4063C106.687 50.6015 106.935 50.6996 107.252 50.6996C107.569 50.6996 107.816 50.6015 107.988 50.4063C108.159 50.2141 108.245 49.9626 108.245 49.6586V41.3717H110.925C111.221 41.3717 111.457 41.2852 111.628 41.1134C111.8 40.9415 111.887 40.7152 111.887 40.4424ZM126.737 49.6586V40.5861C126.737 39.885 126.418 39.5286 125.79 39.5286C125.429 39.5286 125.11 39.7209 124.839 40.0996L119.948 47.0882V40.5861C119.948 40.2831 119.861 40.0287 119.692 39.8306C119.52 39.6306 119.271 39.5286 118.954 39.5286C118.626 39.5286 118.376 39.6306 118.209 39.8316C118.045 40.0306 117.961 40.2841 117.961 40.5861V49.6586C117.961 49.983 118.045 50.2403 118.211 50.4228C118.377 50.6073 118.612 50.7006 118.908 50.7006C119.227 50.7006 119.536 50.5034 119.827 50.1131L124.75 43.171V49.6586C124.75 49.9519 124.836 50.2005 125.006 50.3976C125.178 50.5986 125.431 50.7006 125.758 50.7006C126.076 50.7006 126.322 50.6015 126.488 50.4063C126.653 50.2131 126.737 49.9616 126.737 49.6586ZM136.764 39.5289H129.416C129.134 39.5289 128.903 39.6095 128.731 39.7697C128.558 39.9319 128.47 40.1572 128.47 40.4426C128.47 40.7155 128.558 40.9408 128.73 41.1136C128.901 41.2846 129.132 41.3719 129.416 41.3719H132.097V49.6589C132.097 49.9619 132.183 50.2134 132.354 50.4066C132.526 50.6018 132.774 50.6999 133.091 50.6999C133.408 50.6999 133.655 50.6018 133.827 50.4066C133.998 50.2134 134.084 49.9619 134.084 49.6589V41.3719H136.764C137.059 41.3719 137.295 41.2846 137.467 41.1136C137.639 40.9408 137.727 40.7155 137.727 40.4426C137.727 40.1572 137.639 39.9319 137.465 39.7697C137.293 39.6095 137.058 39.5289 136.764 39.5289ZM148.405 39.5289C148.022 39.5289 147.696 39.7435 147.437 40.1678L144.39 45.2474L141.283 40.1843C141.023 39.7493 140.681 39.5289 140.268 39.5289C139.993 39.5289 139.766 39.6192 139.595 39.7959C139.423 39.9736 139.335 40.2455 139.335 40.6029V49.6589C139.335 50.3493 139.65 50.6999 140.268 50.6999C140.885 50.6999 141.199 50.3493 141.199 49.6589V43.45L143.376 46.973C143.615 47.3653 143.924 47.5634 144.298 47.5634C144.661 47.5634 144.965 47.3595 145.203 46.9574L147.349 43.3762V49.6589C147.349 49.9619 147.439 50.2144 147.614 50.4076C147.791 50.6018 148.037 50.6999 148.343 50.6999C148.66 50.6999 148.908 50.6018 149.079 50.4066C149.249 50.2144 149.336 49.9619 149.336 49.6589V40.5864C149.336 40.2727 149.255 40.0164 149.096 39.8241C148.934 39.6279 148.702 39.5289 148.405 39.5289ZM159.12 47.9313C158.592 48.6518 157.824 49.017 156.837 49.017C155.86 49.017 155.098 48.6518 154.57 47.9313C154.039 47.205 153.77 46.2572 153.77 45.1143C153.77 43.9723 154.039 43.0246 154.57 42.2973C155.098 41.5777 155.86 41.2116 156.837 41.2116C157.824 41.2116 158.592 41.5777 159.12 42.2973C159.65 43.0246 159.92 43.9723 159.92 45.1143C159.92 46.2572 159.65 47.205 159.12 47.9313ZM160.651 40.9922C159.755 39.9153 158.471 39.3695 156.837 39.3695C155.202 39.3695 153.922 39.9153 153.029 40.9922C152.14 42.0652 151.69 43.4528 151.69 45.1143C151.69 46.7874 152.14 48.177 153.03 49.2452C153.922 50.3172 155.202 50.86 156.837 50.86C158.47 50.86 159.755 50.3172 160.651 49.2452C161.547 48.177 162 46.7874 162 45.1143C162 43.4528 161.547 42.0652 160.651 40.9922Z" fill="white"/>
</svg>
