<svg width="20" height="19" viewBox="0 0 20 19" fill="none" xmlns="http://www.w3.org/2000/svg">
<path d="M0.836 9.44C0.836 8.27467 1.045 7.16 1.463 6.096C1.881 5.032 2.47633 4.082 3.249 3.246C4.02167 2.39733 5.00333 1.726 6.194 1.232C7.38467 0.725333 8.702 0.472 10.146 0.472C11.286 0.472 12.35 0.642999 13.338 0.984999C14.326 1.31433 15.162 1.75767 15.846 2.315C16.53 2.87233 17.119 3.512 17.613 4.234C18.107 4.94333 18.468 5.678 18.696 6.438C18.9367 7.198 19.057 7.95167 19.057 8.699C19.057 10.3837 18.715 11.663 18.031 12.537C17.3597 13.411 16.454 13.848 15.314 13.848C14.5793 13.848 13.9523 13.6833 13.433 13.354C12.9137 13.012 12.5527 12.5243 12.35 11.891C11.7293 12.9297 10.773 13.449 9.481 13.449C8.40433 13.449 7.51133 13.0753 6.802 12.328C6.10533 11.568 5.757 10.6243 5.757 9.497C5.757 8.357 6.10533 7.407 6.802 6.647C7.51133 5.887 8.40433 5.507 9.481 5.507C10.0763 5.507 10.6147 5.64633 11.096 5.925C11.5773 6.191 11.9383 6.52033 12.179 6.913V5.697H13.661V10.675C13.661 11.9037 14.2183 12.518 15.333 12.518C16.0423 12.518 16.5743 12.1697 16.929 11.473C17.2837 10.7763 17.461 9.85167 17.461 8.699C17.461 7.901 17.3027 7.11567 16.986 6.343C16.6693 5.55767 16.2133 4.842 15.618 4.196C15.0227 3.53733 14.25 3.00533 13.3 2.6C12.35 2.19467 11.2987 1.992 10.146 1.992C8.56267 1.992 7.17567 2.34667 5.985 3.056C4.79433 3.75267 3.90133 4.65833 3.306 5.773C2.72333 6.88767 2.432 8.11 2.432 9.44C2.432 10.9853 2.80567 12.3343 3.553 13.487C4.313 14.627 5.30733 15.4757 6.536 16.033C7.77733 16.603 9.16433 16.888 10.697 16.888C12.1917 16.888 13.585 16.66 14.877 16.204V17.724C13.5977 18.18 12.1917 18.408 10.659 18.408C9.34167 18.408 8.094 18.2117 6.916 17.819C5.75067 17.4263 4.712 16.8627 3.8 16.128C2.888 15.3933 2.166 14.4497 1.634 13.297C1.102 12.1443 0.836 10.8587 0.836 9.44ZM12.179 8.794C12.0397 8.27467 11.7483 7.83133 11.305 7.464C10.8617 7.09667 10.317 6.913 9.671 6.913C8.99967 6.913 8.42967 7.15367 7.961 7.635C7.505 8.10367 7.277 8.718 7.277 9.478C7.277 10.238 7.505 10.8587 7.961 11.34C8.42967 11.8087 8.99967 12.043 9.671 12.043C10.317 12.043 10.8617 11.8593 11.305 11.492C11.7483 11.1247 12.0397 10.6813 12.179 10.162V8.794Z" fill="#999999"/>
</svg>
