<svg width="19" height="19" viewBox="0 0 19 19" fill="none" xmlns="http://www.w3.org/2000/svg">
<path d="M12.8369 6.88038L18.1527 5.55097C18.712 6.7848 19.0009 8.12397 19 9.47863C19 14.7012 14.7012 19 9.47566 19C9.234 19 8.9959 18.9905 8.75781 18.9721L12.6392 12.3631C12.92 12.0662 13.1587 11.7289 13.338 11.3584C13.6159 10.7701 13.7571 10.1266 13.7513 9.47594C13.7454 8.82531 13.5926 8.18443 13.3042 7.60119C13.1739 7.34513 13.0173 7.10335 12.8369 6.87978V6.88038ZM10.2701 13.6687L8.59097 18.9561C3.75072 18.4805 0 14.361 0 9.48159C0 7.59525 0.562875 5.74869 1.61441 4.17762L5.43994 10.811C5.58244 11.2379 6.32759 12.8553 7.86778 13.4455C8.65925 13.7453 9.48456 13.8261 10.2707 13.6687H10.2701ZM9.47862 6.03309C7.89212 6.04913 6.40775 7.25444 6.08891 8.81363C5.97811 9.38523 6.00962 9.97531 6.18068 10.5319C6.35173 11.0884 6.65707 11.5943 7.06978 12.005C8.03166 12.9455 9.55581 13.2543 10.8175 12.7383C11.9308 12.2841 12.7722 11.2136 12.9479 10.0231C13.1617 8.55475 12.3233 6.98962 10.9719 6.35847C10.5041 6.14169 9.99421 6.03079 9.47862 6.03369V6.03309ZM5.57887 7.88559L1.78778 3.93062C2.67172 2.71386 3.83095 1.72347 5.1708 1.04033C6.51064 0.357203 7.99309 0.000718585 9.49703 0C11.2694 0.00122547 13.0064 0.496394 14.513 1.42993C16.0196 2.36347 17.2362 3.69842 18.0262 5.28497H9.94234C8.50725 5.18581 7.33875 5.69584 6.56509 6.43506C6.13769 6.84357 5.80158 7.33791 5.57887 7.88559Z" fill="#337AB7"/>
</svg>
