<svg width="17" height="20" viewBox="0 0 17 20" fill="none" xmlns="http://www.w3.org/2000/svg">
<path d="M13.7487 6.41604H15.5818C15.8249 6.41604 16.0581 6.51261 16.2299 6.6845C16.4018 6.8564 16.4984 7.08953 16.4984 7.33262V18.3316C16.4984 18.5746 16.4018 18.8078 16.2299 18.9797C16.0581 19.1516 15.8249 19.2481 15.5818 19.2481H0.916578C0.673486 19.2481 0.440351 19.1516 0.268459 18.9797C0.0965677 18.8078 0 18.5746 0 18.3316V7.33262C0 7.08953 0.0965677 6.8564 0.268459 6.6845C0.440351 6.51261 0.673486 6.41604 0.916578 6.41604H2.74973V5.49947C2.74973 4.04092 3.32914 2.64211 4.36049 1.61076C5.39184 0.579406 6.79065 0 8.2492 0C9.70775 0 11.1066 0.579406 12.1379 1.61076C13.1693 2.64211 13.7487 4.04092 13.7487 5.49947V6.41604ZM1.83316 8.2492V17.415H14.6652V8.2492H1.83316ZM11.9155 6.41604V5.49947C11.9155 4.5271 11.5292 3.59456 10.8417 2.90699C10.1541 2.21943 9.22157 1.83316 8.2492 1.83316C7.27683 1.83316 6.34429 2.21943 5.65673 2.90699C4.96916 3.59456 4.58289 4.5271 4.58289 5.49947V6.41604H11.9155Z" fill="#999999"/>
</svg>
