<svg width="198" height="86" viewBox="0 0 198 86" fill="none" xmlns="http://www.w3.org/2000/svg">
<path fill-rule="evenodd" clip-rule="evenodd" d="M62.5254 29.4602C62.5254 30.8951 61.363 32.0566 59.9296 32.0566C58.4961 32.0566 57.3337 30.8951 57.3337 29.4602C57.3337 28.0264 58.4961 26.8637 59.9296 26.8637C61.363 26.8637 62.5254 28.0264 62.5254 29.4602ZM74.9978 12.6948C74.9978 14.8455 73.2542 16.5895 71.1041 16.5895C68.9539 16.5895 67.2115 14.8455 67.2115 12.6948C67.2115 10.5441 68.9539 8.80018 71.1041 8.80018C73.2542 8.80018 74.9978 10.5441 74.9978 12.6948ZM86.1725 18.2835C86.1725 20.4341 84.4289 22.1781 82.2787 22.1781C80.1286 22.1781 78.385 20.4341 78.385 18.2835C78.385 16.1328 80.1286 14.3888 82.2787 14.3888C84.4289 14.3888 86.1725 16.1328 86.1725 18.2835ZM97.3465 23.8715C97.3465 26.0233 95.603 27.7662 93.4539 27.7662C91.3026 27.7662 89.5602 26.0233 89.5602 23.8715C89.5602 21.7209 91.3026 19.978 93.4539 19.978C95.603 19.978 97.3465 21.7209 97.3465 23.8715ZM86.1725 29.4605C86.1725 31.6112 84.4289 33.3551 82.2787 33.3551C80.1286 33.3551 78.385 31.6112 78.385 29.4605C78.385 27.3098 80.1286 25.5659 82.2787 25.5659C84.4289 25.5659 86.1725 27.3098 86.1725 29.4605ZM108.521 29.4605C108.521 31.6112 106.777 33.3551 104.627 33.3551C102.477 33.3551 100.733 31.6112 100.733 29.4605C100.733 27.3098 102.477 25.5659 104.627 25.5659C106.777 25.5659 108.521 27.3098 108.521 29.4605ZM107.223 40.6372C107.223 42.071 106.06 43.2336 104.627 43.2336C103.194 43.2336 102.031 42.071 102.031 40.6372C102.031 39.2034 103.194 38.0408 104.627 38.0408C106.06 38.0408 107.223 39.2034 107.223 40.6372ZM118.398 35.0488C118.398 36.4826 117.236 37.6452 115.802 37.6452C114.369 37.6452 113.206 36.4826 113.206 35.0488C113.206 33.615 114.369 32.4524 115.802 32.4524C117.236 32.4524 118.398 33.615 118.398 35.0488ZM119.696 23.8719C119.696 26.0225 117.951 27.7654 115.802 27.7654C113.653 27.7654 111.908 26.0225 111.908 23.8719C111.908 21.7212 113.653 19.9784 115.802 19.9784C117.951 19.9784 119.696 21.7212 119.696 23.8719ZM108.521 18.2832C108.521 20.4339 106.777 22.1779 104.627 22.1779C102.477 22.1779 100.733 20.4339 100.733 18.2832C100.733 16.1326 102.477 14.3886 104.627 14.3886C106.777 14.3886 108.521 16.1326 108.521 18.2832ZM96.0493 35.0488C96.0493 36.4826 94.8869 37.6452 93.4535 37.6452C92.02 37.6452 90.8565 36.4826 90.8565 35.0488C90.8565 33.615 92.02 32.4524 93.4535 32.4524C94.8869 32.4524 96.0493 33.615 96.0493 35.0488ZM119.696 12.6946C119.696 14.8453 117.952 16.5892 115.802 16.5892C113.653 16.5892 111.908 14.8453 111.908 12.6946C111.908 10.5439 113.653 8.79995 115.802 8.79995C117.952 8.79995 119.696 10.5439 119.696 12.6946ZM129.573 7.10595C129.573 8.53973 128.41 9.70238 126.977 9.70238C125.542 9.70238 124.381 8.53973 124.381 7.10595C124.381 5.67217 125.542 4.50952 126.977 4.50952C128.41 4.50952 129.573 5.67217 129.573 7.10595ZM129.573 29.4605C129.573 30.8943 128.41 32.0569 126.977 32.0569C125.543 32.0569 124.381 30.8943 124.381 29.4605C124.381 28.0267 125.543 26.8641 126.977 26.8641C128.41 26.8641 129.573 28.0267 129.573 29.4605ZM96.0493 12.6948C96.0493 14.1286 94.8869 15.2912 93.4535 15.2912C92.02 15.2912 90.8565 14.1286 90.8565 12.6948C90.8565 11.261 92.02 10.0984 93.4535 10.0984C94.8869 10.0984 96.0493 11.261 96.0493 12.6948ZM84.8747 40.6374C84.8747 42.0712 83.7123 43.2339 82.2788 43.2339C80.8454 43.2339 79.683 42.0712 79.683 40.6374C79.683 39.2037 80.8454 38.041 82.2788 38.041C83.7123 38.041 84.8747 39.2037 84.8747 40.6374ZM74.9978 23.8715C74.9978 26.0222 73.2542 27.7662 71.1041 27.7662C68.9539 27.7662 67.2115 26.0222 67.2115 23.8715C67.2115 21.7209 68.9539 19.978 71.1041 19.978C73.2542 19.978 74.9978 21.7209 74.9978 23.8715Z" fill="white"/>
<path fill-rule="evenodd" clip-rule="evenodd" d="M63.8224 18.2834C63.8224 20.4341 62.0789 22.1781 59.9287 22.1781C57.7797 22.1781 56.0361 20.4341 56.0361 18.2834C56.0361 16.1328 57.7797 14.3888 59.9287 14.3888C62.0789 14.3888 63.8224 16.1328 63.8224 18.2834Z" fill="#EC1947"/>
<path fill-rule="evenodd" clip-rule="evenodd" d="M50.2725 35.0489C50.2725 35.8876 49.5925 36.5666 48.7552 36.5666C47.9167 36.5666 47.2379 35.8876 47.2379 35.0489C47.2379 34.2114 47.9167 33.5313 48.7552 33.5313C49.5925 33.5313 50.2725 34.2114 50.2725 35.0489ZM50.2725 23.872C50.2725 24.7095 49.5925 25.3896 48.7552 25.3896C47.9167 25.3896 47.2379 24.7095 47.2379 23.872C47.2379 23.0333 47.9167 22.3543 48.7552 22.3543C49.5925 22.3543 50.2725 23.0333 50.2725 23.872ZM72.6212 34.9701C72.6212 35.8088 71.9424 36.4877 71.1039 36.4877C70.2666 36.4877 69.5866 35.8088 69.5866 34.9701C69.5866 34.1326 70.2666 33.4525 71.1039 33.4525C71.9424 33.4525 72.6212 34.1326 72.6212 34.9701ZM72.6212 1.51765C72.6212 2.35632 71.9424 3.03529 71.1039 3.03529C70.2654 3.03529 69.5866 2.35632 69.5866 1.51765C69.5866 0.678977 70.2654 0 71.1039 0C71.9424 0 72.6212 0.678977 72.6212 1.51765ZM94.8915 46.2263C94.8915 47.0638 94.2126 47.7439 93.3742 47.7439C92.5357 47.7439 91.8569 47.0638 91.8569 46.2263C91.8569 45.3888 92.5357 44.7087 93.3742 44.7087C94.2126 44.7087 94.8915 45.3888 94.8915 46.2263ZM61.4471 7.10606C61.4471 7.94358 60.7683 8.6237 59.9298 8.6237C59.0914 8.6237 58.4114 7.94358 58.4114 7.10606C58.4114 6.26739 59.0914 5.58841 59.9298 5.58841C60.7683 5.58841 61.4471 6.26739 61.4471 7.10606ZM83.7958 7.10606C83.7958 7.94358 83.1159 8.6237 82.2786 8.6237C81.4401 8.6237 80.7613 7.94358 80.7613 7.10606C80.7613 6.26739 81.4401 5.58841 82.2786 5.58841C83.1159 5.58841 83.7958 6.26739 83.7958 7.10606Z" fill="white"/>
<path fill-rule="evenodd" clip-rule="evenodd" d="M94.8911 46.2266C94.8911 47.0641 94.2123 47.7442 93.3738 47.7442C92.5353 47.7442 91.8565 47.0641 91.8565 46.2266C91.8565 45.389 92.5353 44.7089 93.3738 44.7089C94.2123 44.7089 94.8911 45.389 94.8911 46.2266ZM150.843 18.2836C150.843 19.1211 150.163 19.8012 149.326 19.8012C148.487 19.8012 147.807 19.1211 147.807 18.2836C147.807 17.4461 148.487 16.766 149.326 16.766C150.163 16.766 150.843 17.4461 150.843 18.2836ZM128.494 40.6376C128.494 41.4762 127.815 42.1552 126.976 42.1552C126.139 42.1552 125.459 41.4762 125.459 40.6376C125.459 39.8001 126.139 39.1199 126.976 39.1199C127.815 39.1199 128.494 39.8001 128.494 40.6376ZM142.044 12.6952C142.044 14.8459 140.3 16.5887 138.15 16.5887C136 16.5887 134.258 14.8459 134.258 12.6952C134.258 10.5445 136 8.8017 138.15 8.8017C140.3 8.8017 142.044 10.5445 142.044 12.6952ZM130.87 18.2838C130.87 20.4345 129.126 22.1773 126.976 22.1773C124.826 22.1773 123.082 20.4345 123.082 18.2838C123.082 16.1332 124.826 14.3892 126.976 14.3892C129.126 14.3892 130.87 16.1332 130.87 18.2838ZM139.668 35.0492C139.668 35.8878 138.989 36.5668 138.15 36.5668C137.312 36.5668 136.633 35.8878 136.633 35.0492C136.633 34.2117 137.312 33.5315 138.15 33.5315C138.989 33.5315 139.668 34.2117 139.668 35.0492ZM140.746 23.8722C140.746 25.306 139.585 26.4687 138.15 26.4687C136.717 26.4687 135.554 25.306 135.554 23.8722C135.554 22.4385 136.717 21.2758 138.15 21.2758C139.585 21.2758 140.746 22.4385 140.746 23.8722ZM106.144 7.10632C106.144 7.94384 105.465 8.62397 104.626 8.62397C103.788 8.62397 103.109 7.94384 103.109 7.10632C103.109 6.26765 103.788 5.58868 104.626 5.58868C105.465 5.58868 106.144 6.26765 106.144 7.10632ZM139.668 1.51826C139.668 2.35578 138.989 3.0359 138.152 3.0359C137.312 3.0359 136.633 2.35578 136.633 1.51826C136.633 0.679588 137.312 0.000610352 138.152 0.000610352C138.989 0.000610352 139.668 0.679588 139.668 1.51826ZM150.843 7.10632C150.843 7.94384 150.163 8.62397 149.326 8.62397C148.487 8.62397 147.807 7.94384 147.807 7.10632C147.807 6.26765 148.487 5.58868 149.326 5.58868C150.163 5.58868 150.843 6.26765 150.843 7.10632ZM10.6278 73.524C10.83 73.0369 10.8679 72.6382 10.7415 72.3407C10.6439 72.1132 10.4509 71.942 10.1661 71.8317C9.47349 71.5778 8.92217 71.9087 8.55462 72.8025L5.96455 79.0845L2.39358 72.6692C2.18224 72.2717 1.9284 72.0029 1.63781 71.8708C1.34262 71.7352 1.01642 71.7559 0.669544 71.9363C0.34679 72.1166 0.171056 72.3947 0.144638 72.7623C0.119369 73.1196 0.213554 73.4769 0.423746 73.8227L4.81251 81.4511C4.6184 81.9532 4.41051 82.3323 4.19572 82.577C3.98208 82.8206 3.73513 82.9389 3.43995 82.9389C3.30671 82.9389 3.18266 82.9263 3.0678 82.9022C2.95294 82.878 2.81741 82.8355 2.66465 82.7735C2.50155 82.7091 2.38899 82.6701 2.32926 82.6586C1.66882 82.4426 1.21857 82.6287 1.00264 83.1974C0.760283 83.8419 0.994595 84.3647 1.69983 84.7495C2.16271 85.0069 2.78755 85.1378 3.55366 85.1378C4.40591 85.1378 5.11689 84.8139 5.66592 84.1739C6.2046 83.5455 6.7789 82.523 7.37272 81.1352L10.6278 73.524ZM14.1902 84.9487C14.5635 84.9487 14.8621 84.8327 15.078 84.6029C15.294 84.3743 15.4031 84.0767 15.4031 83.716V79.2883H21.2667V83.716C21.2667 84.0756 21.3723 84.3743 21.5802 84.6018C21.7893 84.8316 22.0925 84.9487 22.4796 84.9487C22.8529 84.9487 23.1526 84.8327 23.3686 84.6018C23.5834 84.3743 23.6913 84.0756 23.6913 83.716V72.9833C23.6913 72.6237 23.5834 72.3227 23.3697 72.0884C23.1526 71.8517 22.8529 71.7322 22.4796 71.7322C22.0925 71.7322 21.7893 71.8529 21.5791 72.0895C21.3712 72.3239 21.2667 72.6237 21.2667 72.9833V77.1089H15.4031V72.9833C15.4031 72.6237 15.294 72.3227 15.0792 72.0884C14.8633 71.8517 14.5646 71.7322 14.1902 71.7322C13.8031 71.7322 13.4999 71.8529 13.2897 72.0895C13.0818 72.3239 12.9773 72.6249 12.9773 72.9833V83.716C12.9773 84.0756 13.0829 84.3732 13.2908 84.6018C13.4999 84.8316 13.8031 84.9487 14.1902 84.9487ZM28.2896 84.9487C28.679 84.9487 29.0557 84.7155 29.4118 84.2548L35.4224 76.0405V83.716C35.4224 84.063 35.528 84.3571 35.7348 84.5914C35.945 84.8281 36.2551 84.9487 36.6548 84.9487C37.0419 84.9487 37.3416 84.8316 37.5461 84.6006C37.7459 84.3732 37.8482 84.0756 37.8482 83.716V72.9833C37.8482 72.1527 37.4588 71.7322 36.6927 71.7322C36.2516 71.7322 35.8611 71.9597 35.5326 72.4078L29.5588 80.6761V72.9833C29.5588 72.6249 29.4543 72.3239 29.2464 72.0895C29.0362 71.8529 28.733 71.7322 28.3459 71.7322C27.9462 71.7322 27.6395 71.8529 27.4362 72.0907C27.2352 72.325 27.133 72.6249 27.133 72.9833V83.716C27.133 84.1009 27.2363 84.4053 27.4373 84.6213C27.6418 84.8384 27.9289 84.9487 28.2896 84.9487ZM47.8061 82.5543C47.3478 82.8599 46.6529 83.015 45.7387 83.015C44.9186 83.015 44.2064 82.9794 43.6206 82.9093V79.118H45.7203C47.5775 79.118 48.4815 79.7499 48.4815 81.047C48.4815 81.7489 48.2541 82.2556 47.8061 82.5543ZM45.4733 77.2603H43.6206V73.7724C44.1949 73.7149 44.7543 73.6851 45.285 73.6851C47.0159 73.6851 47.8567 74.2365 47.8567 75.3681C47.8567 76.6411 47.0768 77.2603 45.4733 77.2603ZM48.7422 77.8727C49.2051 77.6268 49.5818 77.2695 49.8644 76.81C50.1791 76.2941 50.3399 75.7335 50.3399 75.1418C50.3399 72.8165 48.7089 71.6378 45.4929 71.6378C44.3592 71.6378 43.3289 71.7148 42.4319 71.8664C41.6738 71.9985 41.289 72.4512 41.289 73.2106V83.5469C41.289 84.2936 41.668 84.7279 42.4146 84.8336C43.3094 84.9726 44.3959 85.0439 45.6445 85.0439C49.1741 85.0439 50.9636 83.6675 50.9636 80.9528C50.9636 80.1945 50.7477 79.5316 50.3227 78.9836C49.9333 78.4827 49.4027 78.1093 48.7422 77.8727ZM62.4933 84.6531C62.7046 84.4555 62.8114 84.1913 62.8114 83.8685C62.8114 83.5318 62.7046 83.2619 62.4933 83.0631C62.2831 82.8678 62.0017 82.769 61.6548 82.769H56.2633V79.25H60.4063C60.7658 79.25 61.0552 79.1478 61.2643 78.9444C61.4745 78.7411 61.5813 78.4745 61.5813 78.1517C61.5813 77.8139 61.4733 77.5463 61.262 77.3556C61.0529 77.166 60.7646 77.0706 60.4063 77.0706H56.2633V73.9124H61.4653C61.8133 73.9124 62.0947 73.8125 62.3037 73.6172C62.5151 73.4196 62.6219 73.1553 62.6219 72.8313C62.6219 72.4947 62.5151 72.2247 62.3037 72.0271C62.0947 71.8318 61.8121 71.7319 61.4653 71.7319H55.0688C54.6817 71.7319 54.3762 71.8525 54.1602 72.088C53.9454 72.3235 53.8363 72.6245 53.8363 72.983V83.6973C53.8363 84.0569 53.9489 84.359 54.1706 84.5934C54.3923 84.8289 54.7012 84.9484 55.0883 84.9484H61.6548C62.0017 84.9484 62.2831 84.8496 62.4933 84.6531ZM67.6368 73.8839C68.1628 73.815 68.69 73.7794 69.2057 73.7794C70.9493 73.7794 71.7981 74.4917 71.7981 75.9553C71.7981 77.5212 70.9068 78.2818 69.0737 78.2818C68.4741 78.2818 67.9917 78.2599 67.6368 78.2163V73.8839ZM74.3365 75.8979C74.3365 74.4411 73.8771 73.3532 72.972 72.6661C72.0726 71.9837 70.8241 71.6379 69.2632 71.6379C68.1525 71.6379 67.167 71.7206 66.3331 71.8849C65.5888 72.032 65.2109 72.503 65.2109 73.2854V83.717C65.2109 84.0755 65.3166 84.373 65.5245 84.6017C65.7347 84.8326 66.0368 84.9486 66.4239 84.9486C66.7983 84.9486 67.0969 84.8326 67.3129 84.6028C67.5276 84.3742 67.6368 84.0766 67.6368 83.717V80.3233C68.0147 80.3784 68.5419 80.406 69.2057 80.406C70.7184 80.406 71.9635 80.0234 72.9065 79.2721C73.8552 78.515 74.3365 77.3799 74.3365 75.8979ZM85.0081 82.1542C84.103 82.6873 83.2117 82.9573 82.3594 82.9573C81.2912 82.9573 80.3965 82.5437 79.7027 81.7257C79.0055 80.9054 78.6518 79.76 78.6518 78.3216C78.6518 76.9327 78.9803 75.8045 79.6292 74.9704C80.6825 73.6171 82.4168 73.3517 84.7554 74.2478C85.5422 74.5419 86.0602 74.4201 86.291 73.9054C86.561 73.3264 86.399 72.8289 85.8109 72.428C84.969 71.8409 83.7756 71.5434 82.2652 71.5434C80.3448 71.5434 78.8229 72.166 77.7409 73.3953C76.6601 74.6223 76.1122 76.2859 76.1122 78.34C76.1122 80.4195 76.6279 82.0888 77.6444 83.302C78.6655 84.5209 80.1943 85.1378 82.1894 85.1378C83.763 85.1378 85.0781 84.7576 86.0969 84.0051C86.4254 83.7558 86.6299 83.4662 86.7034 83.1469C86.7769 82.8217 86.7252 82.5391 86.5495 82.3093C86.2129 81.8245 85.6892 81.7659 85.0081 82.1542ZM98.9005 71.732C98.4606 71.732 98.0701 71.9595 97.7404 72.4075L91.7678 80.6759V72.9831C91.7678 72.6247 91.6621 72.3237 91.4553 72.0893C91.244 71.8526 90.9419 71.732 90.5548 71.732C90.154 71.732 89.8484 71.8526 89.644 72.0904C89.443 72.3248 89.3419 72.6247 89.3419 72.9831V83.7169C89.3419 84.1006 89.4441 84.4051 89.6463 84.6211C89.8496 84.8382 90.1367 84.9485 90.4986 84.9485C90.8868 84.9485 91.2647 84.7153 91.6196 84.2546L97.6313 76.0402V83.7169C97.6313 84.0627 97.7358 84.358 97.9437 84.5912C98.1539 84.8279 98.4629 84.9485 98.8626 84.9485C99.2508 84.9485 99.5495 84.8313 99.7539 84.6004C99.9549 84.3729 100.057 84.0754 100.057 83.7169V72.9831C100.057 72.1525 99.6678 71.732 98.9005 71.732ZM113.475 72.8127C113.475 72.4761 113.368 72.2084 113.156 72.0166C112.947 71.8282 112.658 71.7317 112.3 71.7317H103.329C102.984 71.7317 102.701 71.8282 102.491 72.0166C102.28 72.2084 102.173 72.4761 102.173 72.8127C102.173 73.1356 102.28 73.4032 102.49 73.6066C102.7 73.8099 102.981 73.9122 103.329 73.9122H106.602V83.7166C106.602 84.075 106.706 84.3737 106.915 84.6012C107.124 84.8321 107.428 84.9482 107.815 84.9482C108.202 84.9482 108.504 84.8321 108.713 84.6012C108.922 84.3737 109.028 84.0762 109.028 83.7166V73.9122H112.3C112.659 73.9122 112.949 73.8099 113.158 73.6066C113.368 73.4032 113.475 73.1356 113.475 72.8127ZM123.409 82.7685H118.018V79.2507H122.16C122.52 79.2507 122.809 79.1473 123.018 78.9451C123.229 78.7418 123.336 78.4741 123.336 78.1513C123.336 77.8146 123.228 77.5458 123.016 77.3551C122.807 77.1667 122.519 77.0702 122.16 77.0702H118.018V73.912H123.219C123.568 73.912 123.849 73.8132 124.058 73.6167C124.269 73.4202 124.376 73.156 124.376 72.832C124.376 72.4954 124.269 72.2243 124.058 72.0278C123.849 71.8314 123.566 71.7326 123.219 71.7326H116.823C116.436 71.7326 116.13 71.8521 115.914 72.0887C115.7 72.3231 115.591 72.6241 115.591 72.9837V83.698C115.591 84.0576 115.703 84.3586 115.925 84.5929C116.146 84.8284 116.455 84.9491 116.843 84.9491H123.409C123.756 84.9491 124.037 84.8491 124.247 84.6527C124.459 84.4562 124.566 84.192 124.566 83.868C124.566 83.5325 124.459 83.2614 124.247 83.0638C124.037 82.8673 123.756 82.7685 123.409 82.7685ZM136.754 72.8127C136.754 72.4761 136.647 72.2084 136.434 72.0166C136.225 71.8282 135.937 71.7317 135.579 71.7317H126.608C126.262 71.7317 125.98 71.8282 125.77 72.0166C125.558 72.2084 125.451 72.4761 125.451 72.8127C125.451 73.1356 125.558 73.4032 125.768 73.6066C125.979 73.8099 126.26 73.9122 126.608 73.9122H129.88V83.7166C129.88 84.075 129.985 84.3737 130.194 84.6012C130.403 84.8321 130.706 84.9482 131.093 84.9482C131.48 84.9482 131.782 84.8321 131.992 84.6012C132.201 84.3737 132.306 84.0762 132.306 83.7166V73.9122H135.579C135.938 73.9122 136.228 73.8099 136.437 73.6066C136.647 73.4032 136.754 73.1356 136.754 72.8127ZM154.884 83.7166V72.9828C154.884 72.1533 154.494 71.7317 153.728 71.7317C153.287 71.7317 152.898 71.9591 152.567 72.4072L146.594 80.6755V72.9828C146.594 72.6243 146.489 72.3233 146.282 72.0889C146.072 71.8523 145.768 71.7317 145.382 71.7317C144.982 71.7317 144.675 71.8523 144.472 72.0901C144.271 72.3256 144.168 72.6255 144.168 72.9828V83.7166C144.168 84.1003 144.272 84.4047 144.474 84.6207C144.677 84.839 144.963 84.9493 145.325 84.9493C145.714 84.9493 146.091 84.7161 146.447 84.2542L152.458 76.041V83.7166C152.458 84.0635 152.563 84.3576 152.771 84.5909C152.98 84.8287 153.289 84.9493 153.69 84.9493C154.077 84.9493 154.377 84.8321 154.58 84.6012C154.783 84.3726 154.884 84.075 154.884 83.7166ZM167.127 71.732H158.157C157.811 71.732 157.53 71.8274 157.318 72.0169C157.107 72.2088 157 72.4753 157 72.8131C157 73.1359 157.107 73.4024 157.317 73.6069C157.527 73.8091 157.809 73.9125 158.157 73.9125H161.429V83.7169C161.429 84.0754 161.535 84.3729 161.743 84.6015C161.953 84.8325 162.255 84.9485 162.642 84.9485C163.029 84.9485 163.331 84.8325 163.54 84.6015C163.749 84.3729 163.855 84.0754 163.855 83.7169V73.9125H167.127C167.487 73.9125 167.775 73.8091 167.985 73.6069C168.195 73.4024 168.302 73.1359 168.302 72.8131C168.302 72.4753 168.195 72.2088 167.983 72.0169C167.774 71.8274 167.486 71.732 167.127 71.732ZM181.34 71.732C180.872 71.732 180.475 71.9859 180.158 72.4879L176.438 78.4976L172.644 72.5075C172.327 71.9928 171.91 71.732 171.405 71.732C171.069 71.732 170.792 71.8388 170.583 72.0479C170.373 72.2582 170.268 72.5799 170.268 73.0026V83.7169C170.268 84.5338 170.65 84.9485 171.405 84.9485C172.159 84.9485 172.542 84.5338 172.542 83.7169V76.3711L175.2 80.5392C175.491 81.0033 175.869 81.2377 176.325 81.2377C176.769 81.2377 177.141 80.9964 177.432 80.5208L180.051 76.2838V83.7169C180.051 84.0754 180.16 84.3741 180.376 84.6027C180.592 84.8325 180.891 84.9485 181.265 84.9485C181.651 84.9485 181.954 84.8325 182.163 84.6015C182.371 84.3741 182.477 84.0754 182.477 83.7169V72.9831C182.477 72.612 182.379 72.3087 182.184 72.0813C181.987 71.8492 181.703 71.732 181.34 71.732ZM194.423 81.673C193.778 82.5254 192.841 82.9574 191.636 82.9574C190.444 82.9574 189.512 82.5254 188.868 81.673C188.219 80.8136 187.891 79.6923 187.891 78.3401C187.891 76.9891 188.219 75.8678 188.868 75.0073C189.512 74.156 190.444 73.7229 191.636 73.7229C192.841 73.7229 193.778 74.156 194.423 75.0073C195.072 75.8678 195.4 76.9891 195.4 78.3401C195.4 79.6923 195.072 80.8136 194.423 81.673ZM196.293 73.4632C195.198 72.1891 193.631 71.5435 191.636 71.5435C189.64 71.5435 188.077 72.1891 186.988 73.4632C185.902 74.7327 185.351 76.3744 185.351 78.3401C185.351 80.3196 185.902 81.9636 186.988 83.2274C188.078 84.4957 189.641 85.138 191.636 85.138C193.631 85.138 195.198 84.4957 196.293 83.2274C197.386 81.9636 197.94 80.3196 197.94 78.3401C197.94 76.3744 197.386 74.7327 196.293 73.4632Z" fill="white"/>
</svg>
