<svg width="19" height="19" viewBox="0 0 19 19" fill="none" xmlns="http://www.w3.org/2000/svg">
<path d="M6.90045 5.76871C6.90727 5.76871 6.90355 5.76871 6.90045 5.76871V5.76871ZM4.60939 4.66006C4.6162 4.66006 4.61249 4.66006 4.60939 4.66006V4.66006ZM18.3136 6.37131C17.9004 5.40956 17.0615 4.37285 16.4061 4.04188C16.942 5.05639 17.2517 6.07811 17.3676 6.83659L17.3707 6.85278C16.2933 4.25713 14.4706 3.21144 12.9794 0.934171C12.905 0.819048 12.8307 0.703326 12.7564 0.581608C12.7173 0.51925 12.6851 0.456892 12.6498 0.390337C12.5889 0.274292 12.5424 0.151736 12.511 0.025183C12.511 0.0131911 12.5017 0.00359758 12.4887 0.000599597H12.4695L12.4664 0.00359757C12.4633 0.00359757 12.4596 0.00659555 12.4596 0.00659555C12.4596 0.00659555 12.4596 0.00359758 12.4627 0C10.3457 1.19919 9.47155 3.30078 9.24542 4.63428C8.59257 4.67212 7.95315 4.83004 7.36139 5.09956C7.3074 5.12542 7.26513 5.16958 7.24263 5.22365C7.22012 5.27772 7.21895 5.33792 7.23934 5.39277C7.25038 5.42313 7.26782 5.45094 7.29056 5.47443C7.3133 5.49792 7.34084 5.51657 7.37143 5.5292C7.40202 5.54183 7.43499 5.54817 7.46825 5.5478C7.5015 5.54744 7.53431 5.54038 7.5646 5.52708C8.08082 5.29207 8.63782 5.15237 9.207 5.11515L9.26214 5.10856C9.33959 5.10556 9.42013 5.10196 9.49757 5.10196C9.95932 5.09909 10.4191 5.16109 10.8624 5.28604L10.9399 5.30822C11.0142 5.32981 11.0855 5.35439 11.1598 5.38018C11.2112 5.39876 11.2664 5.41795 11.3178 5.43954C11.3599 5.45453 11.402 5.47371 11.4435 5.4893C11.5086 5.51808 11.573 5.54926 11.6375 5.58044L11.7242 5.62061C11.7886 5.65239 11.8506 5.68597 11.9119 5.72075C11.951 5.74293 11.9894 5.76452 12.0278 5.7897C12.7168 6.20144 13.2883 6.77369 13.69 7.45418C13.1838 7.11121 12.2731 6.76764 11.3996 6.91754C14.8194 8.57243 13.9 14.2716 9.15992 14.0557C8.63658 14.0367 8.12182 13.9211 7.64328 13.7152C7.5893 13.691 7.53561 13.6662 7.4822 13.6408C6.31994 13.0598 5.36151 11.9601 5.24256 10.6266C5.24256 10.6266 5.68119 9.04371 8.38487 9.04371C8.67916 9.04371 9.51492 8.25284 9.53041 8.02499C9.52359 7.95004 7.86818 7.31327 7.22323 6.69809C6.87815 6.37011 6.71707 6.21122 6.57148 6.0919C6.49292 6.02643 6.40992 5.96614 6.32304 5.91142C6.10687 5.17742 6.0981 4.40073 6.29764 3.66233C5.31938 4.09344 4.56106 4.77458 4.00967 5.37418H4.0041C3.62679 4.91189 3.65529 3.38772 3.6745 3.06933C3.6714 3.04775 3.39385 3.20664 3.35791 3.23182C3.02584 3.46267 2.71297 3.71929 2.4286 4.0035C2.10278 4.32254 1.80499 4.66731 1.53832 5.03421C0.927707 5.87206 0.494577 6.81864 0.263925 7.81933C0.200927 8.10046 0.149464 8.38389 0.109659 8.66896C0.0971451 8.74045 0.0864033 8.81223 0.0774427 8.88422C0.0507929 9.0594 0.0323941 9.23566 0.0223035 9.41246L0.0192058 9.44064C0.0136299 9.54377 0.00681495 9.6439 0 9.74703V9.7932C0 14.8778 4.25935 19 9.51306 19C14.2172 19 18.1247 15.6926 18.8898 11.3516C18.9065 11.2334 18.9189 11.1147 18.9319 10.996C19.1221 9.41845 18.9127 7.75757 18.3155 6.37131H18.3136Z" fill="#337AB7"/>
</svg>
