<svg width="20" height="19" viewBox="0 0 20 19" fill="none" xmlns="http://www.w3.org/2000/svg">
<path d="M4.43818 18.993H4.41018C3.88218 18.993 3.38318 18.785 3.00518 18.407L0.293177 15.695C0.200232 15.6022 0.126493 15.492 0.0761833 15.3707C0.0258732 15.2493 -2.47955e-05 15.1193 -2.47955e-05 14.988C-2.47955e-05 14.8566 0.0258732 14.7266 0.0761833 14.6053C0.126493 14.484 0.200232 14.3738 0.293177 14.281L4.29318 10.281C4.38597 10.188 4.49617 10.1143 4.61748 10.064C4.7388 10.0137 4.86884 9.98777 5.00018 9.98777C5.13151 9.98777 5.26156 10.0137 5.38287 10.064C5.50419 10.1143 5.61439 10.188 5.70718 10.281L7.30118 11.875C8.04018 11.655 9.41918 11.155 10.2932 10.281C11.1672 9.40697 11.6672 8.02797 11.8872 7.28897L10.2932 5.69497C10.2002 5.60218 10.1265 5.49197 10.0762 5.37066C10.0259 5.24934 9.99998 5.1193 9.99998 4.98797C9.99998 4.85663 10.0259 4.72659 10.0762 4.60527C10.1265 4.48396 10.2002 4.37375 10.2932 4.28097L14.2932 0.280967C14.4844 0.100519 14.7373 0 15.0002 0C15.2631 0 15.516 0.100519 15.7072 0.280967L18.4182 2.99297C18.7982 3.37297 19.0122 3.89497 19.0042 4.42797C18.9812 5.85197 18.6042 10.798 14.7062 14.696C10.8082 18.594 5.86218 18.97 4.43818 18.993ZM14.9992 2.40197L12.4132 4.98797L13.7062 6.28097C13.8238 6.39831 13.9103 6.54322 13.9576 6.70252C14.0049 6.86181 14.0117 7.03041 13.9772 7.19297C13.9532 7.30797 13.3662 10.035 11.7062 11.695C10.0462 13.355 7.31918 13.942 7.20418 13.966C7.04163 14.0006 6.87297 13.994 6.71365 13.9467C6.55432 13.8993 6.40942 13.8128 6.29218 13.695L4.99918 12.402L2.41318 14.988L4.41918 16.993C5.66718 16.972 9.93718 16.637 13.2922 13.281C16.6582 9.91497 16.9842 5.62997 17.0042 4.40697L14.9992 2.40197Z" fill="#337AB7"/>
</svg>
