<svg width="13" height="18" viewBox="0 0 13 18" fill="none" xmlns="http://www.w3.org/2000/svg">
<path d="M6.21346 1.24263C6.82788 1.24263 7.42851 1.42483 7.93938 1.76618C8.45025 2.10754 8.84843 2.59272 9.08356 3.16037C9.31869 3.72802 9.38021 4.35265 9.26034 4.95526C9.14047 5.55788 8.8446 6.11142 8.41014 6.54588C7.97568 6.98034 7.42214 7.27621 6.81952 7.39608C6.21691 7.51595 5.59228 7.45443 5.02463 7.2193C4.45698 6.98417 3.9718 6.58599 3.63044 6.07512C3.28909 5.56425 3.10689 4.96362 3.10689 4.3492C3.10689 3.52529 3.43419 2.73512 4.01678 2.15252C4.59938 1.56993 5.38955 1.24263 6.21346 1.24263ZM6.21346 0C5.35327 0 4.5124 0.255076 3.79717 0.732973C3.08195 1.21087 2.5245 1.89012 2.19532 2.68483C1.86614 3.47955 1.78001 4.35403 1.94783 5.19769C2.11564 6.04135 2.52986 6.8163 3.13811 7.42455C3.74636 8.0328 4.52131 8.44702 5.36497 8.61483C6.20864 8.78265 7.08312 8.69652 7.87783 8.36734C8.67254 8.03816 9.35179 7.48071 9.82969 6.76549C10.3076 6.05027 10.5627 5.20939 10.5627 4.3492C10.5627 3.19572 10.1044 2.08948 9.28881 1.27385C8.47318 0.458218 7.36694 0 6.21346 0Z" fill="#999999"/>
<path d="M12.4263 17.3968H11.1837V14.2902C11.1837 13.4663 10.8564 12.6762 10.2738 12.0936C9.69117 11.511 8.901 11.1837 8.07709 11.1837H4.3492C3.52529 11.1837 2.73512 11.511 2.15252 12.0936C1.56993 12.6762 1.24263 13.4663 1.24263 14.2902V17.3968H0V14.2902C0 13.1368 0.458218 12.0305 1.27385 11.2149C2.08948 10.3993 3.19572 9.94103 4.3492 9.94103H8.07709C9.23057 9.94103 10.3368 10.3993 11.1524 11.2149C11.9681 12.0305 12.4263 13.1368 12.4263 14.2902V17.3968Z" fill="#999999"/>
</svg>
