<svg width="19" height="19" viewBox="0 0 19 19" fill="none" xmlns="http://www.w3.org/2000/svg">
<path d="M18.0479 5.78868C18.9392 3.61835 18.9979 1.80991 17.9294 0.725279C16.7414 -0.479633 13.8904 -0.117734 10.8653 1.32667H10.5078C8.37185 1.32667 6.29256 2.11221 4.74909 3.497C3.44469 4.70298 2.4947 6.26979 2.07842 8.01649C2.37516 7.65779 4.03817 5.66734 5.9371 4.5827C5.99792 4.5827 6.47187 4.28148 6.47187 4.28148C6.4121 4.28148 5.52292 5.18622 5.34572 5.36717C1.1882 9.70571 -1.24445 16.2753 0.655534 18.2029C1.90122 19.4685 4.15771 19.1673 6.76966 17.7218C7.89685 18.2646 9.14463 18.5041 10.5078 18.5041C12.2892 18.5041 13.9523 18.022 15.3762 17.0576C16.8609 16.0932 17.9305 14.5892 18.5837 12.8404H13.9533C13.3598 13.9846 11.9936 14.7691 10.5696 14.7691C8.5501 14.7691 6.8871 13.081 6.82838 11.1533V10.9734H18.9402V10.7925C18.9402 10.4912 19 10.1293 19 9.88985C18.999 8.44013 18.6424 7.05426 18.0479 5.78868ZM1.95994 17.8421C1.00994 16.8777 1.30878 15.0086 2.43493 12.7797C2.96969 14.2869 3.85992 15.6132 4.98816 16.5765C5.34572 16.8766 5.75885 17.1779 6.17617 17.4195C4.2741 18.4445 2.73167 18.6255 1.95994 17.8421ZM14.1295 8.68175H6.88709V8.62108C7.00558 6.75197 8.72626 5.12449 10.7468 5.12449C12.6468 5.12449 14.1903 6.63169 14.3088 8.62108V8.68175H14.1295ZM17.7512 5.3065C17.3805 4.6786 16.9201 4.11004 16.3849 3.61941C15.5574 2.83744 14.5899 2.22357 13.5349 1.81098C15.436 0.907294 17.0382 0.788079 17.8697 1.63109C18.5229 2.4145 18.4642 3.73969 17.7512 5.3065C17.7512 5.36717 17.7512 5.36717 17.7512 5.3065C17.7512 5.36717 17.7512 5.36717 17.7512 5.3065Z" fill="#337AB7"/>
</svg>
