<svg width="240" height="25" viewBox="0 0 240 25" fill="none" xmlns="http://www.w3.org/2000/svg">
<path fill-rule="evenodd" clip-rule="evenodd" d="M8.20649 15.1785C8.20649 15.9175 7.58259 16.5164 6.81277 16.5164C6.0437 16.5164 5.4198 15.9175 5.4198 15.1785C5.4198 14.4402 6.0437 13.8405 6.81277 13.8405C7.58259 13.8405 8.20649 14.4402 8.20649 15.1785ZM14.9017 6.54073C14.9017 7.64856 13.9658 8.54697 12.8119 8.54697C11.6571 8.54697 10.7213 7.64856 10.7213 6.54073C10.7213 5.4322 11.6571 4.5345 12.8119 4.5345C13.9658 4.5345 14.9017 5.4322 14.9017 6.54073ZM20.9002 9.42C20.9002 10.5278 19.9643 11.4262 18.8103 11.4262C17.6564 11.4262 16.7198 10.5278 16.7198 9.42C16.7198 8.31146 17.6564 7.41377 18.8103 7.41377C19.9643 7.41377 20.9002 8.31146 20.9002 9.42ZM26.8988 12.2991C26.8988 13.4077 25.963 14.3054 24.809 14.3054C23.655 14.3054 22.7192 13.4077 22.7192 12.2991C22.7192 11.1913 23.655 10.2929 24.809 10.2929C25.963 10.2929 26.8988 11.1913 26.8988 12.2991ZM20.9002 15.1786C20.9002 16.2864 19.9643 17.1848 18.8103 17.1848C17.6564 17.1848 16.7198 16.2864 16.7198 15.1786C16.7198 14.0701 17.6564 13.1724 18.8103 13.1724C19.9643 13.1724 20.9002 14.0701 20.9002 15.1786ZM32.8971 15.1786C32.8971 16.2864 31.9612 17.1848 30.8065 17.1848C29.6525 17.1848 28.7167 16.2864 28.7167 15.1786C28.7167 14.0701 29.6525 13.1724 30.8065 13.1724C31.9612 13.1724 32.8971 14.0701 32.8971 15.1786ZM32.2004 20.9371C32.2004 21.6761 31.5766 22.275 30.8067 22.275C30.0377 22.275 29.413 21.6761 29.413 20.9371C29.413 20.1981 30.0377 19.5998 30.8067 19.5998C31.5766 19.5998 32.2004 20.1981 32.2004 20.9371ZM38.1995 18.0578C38.1995 18.7968 37.5756 19.3958 36.8057 19.3958C36.0367 19.3958 35.4128 18.7968 35.4128 18.0578C35.4128 17.3195 36.0367 16.7206 36.8057 16.7206C37.5756 16.7206 38.1995 17.3195 38.1995 18.0578ZM38.896 12.2991C38.896 13.407 37.9602 14.3054 36.8062 14.3054C35.6522 14.3054 34.7156 13.407 34.7156 12.2991C34.7156 11.1913 35.6522 10.2929 36.8062 10.2929C37.9602 10.2929 38.896 11.1913 38.896 12.2991ZM32.8971 9.41986C32.8971 10.5277 31.9612 11.4261 30.8065 11.4261C29.6525 11.4261 28.7167 10.5277 28.7167 9.41986C28.7167 8.31204 29.6525 7.41363 30.8065 7.41363C31.9612 7.41363 32.8971 8.31204 32.8971 9.41986ZM26.2023 18.0578C26.2023 18.7968 25.5784 19.3958 24.8086 19.3958C24.0395 19.3958 23.4149 18.7968 23.4149 18.0578C23.4149 17.3188 24.0395 16.7206 24.8086 16.7206C25.5784 16.7206 26.2023 17.3188 26.2023 18.0578ZM38.896 6.54052C38.896 7.64834 37.9602 8.54675 36.8062 8.54675C35.6522 8.54675 34.7156 7.64834 34.7156 6.54052C34.7156 5.4327 35.6522 4.53429 36.8062 4.53429C37.9602 4.53429 38.896 5.4327 38.896 6.54052ZM44.1979 3.66118C44.1979 4.4002 43.5741 4.99914 42.8042 4.99914C42.0344 4.99914 41.4113 4.4002 41.4113 3.66118C41.4113 2.92287 42.0344 2.32393 42.8042 2.32393C43.5741 2.32393 44.1979 2.92287 44.1979 3.66118ZM44.1979 15.1785C44.1979 15.9175 43.5741 16.5164 42.8042 16.5164C42.0352 16.5164 41.4105 15.9175 41.4105 15.1785C41.4105 14.4394 42.0352 13.8405 42.8042 13.8405C43.5741 13.8405 44.1979 14.4394 44.1979 15.1785ZM26.2023 6.54073C26.2023 7.27904 25.5784 7.87798 24.8086 7.87798C24.0395 7.87798 23.4149 7.27904 23.4149 6.54073C23.4149 5.80171 24.0395 5.20277 24.8086 5.20277C25.5784 5.20277 26.2023 5.80171 26.2023 6.54073ZM20.2036 20.9371C20.2036 21.6761 19.5797 22.275 18.8099 22.275C18.0408 22.275 17.4169 21.6761 17.4169 20.9371C17.4169 20.1981 18.0408 19.5998 18.8099 19.5998C19.5797 19.5998 20.2036 20.1981 20.2036 20.9371ZM14.9017 12.2991C14.9017 13.407 13.9658 14.3054 12.8119 14.3054C11.6579 14.3054 10.7213 13.407 10.7213 12.2991C10.7213 11.1913 11.6579 10.2929 12.8119 10.2929C13.9658 10.2929 14.9017 11.1913 14.9017 12.2991Z" fill="#3949E7"/>
<path fill-rule="evenodd" clip-rule="evenodd" d="M8.90307 9.4199C8.90307 10.5277 7.96722 11.4261 6.81323 11.4261C5.65924 11.4261 4.72339 10.5277 4.72339 9.4199C4.72339 8.31207 5.65924 7.41367 6.81323 7.41367C7.96722 7.41367 8.90307 8.31207 8.90307 9.4199Z" fill="#F21F5B"/>
<path fill-rule="evenodd" clip-rule="evenodd" d="M1.62898 18.0578C1.62898 18.4895 1.26417 18.8397 0.81449 18.8397C0.364064 18.8397 0 18.4895 0 18.0578C0 17.6261 0.364064 17.2759 0.81449 17.2759C1.26417 17.2759 1.62898 17.6261 1.62898 18.0578ZM1.62898 12.2991C1.62898 12.7308 1.26417 13.081 0.81449 13.081C0.364064 13.081 0 12.7308 0 12.2991C0 11.8674 0.364064 11.5172 0.81449 11.5172C1.26417 11.5172 1.62898 11.8674 1.62898 12.2991ZM13.6258 18.0171C13.6258 18.4488 13.261 18.7991 12.8113 18.7991C12.3616 18.7991 11.9968 18.4488 11.9968 18.0171C11.9968 17.5854 12.3616 17.2352 12.8113 17.2352C13.261 17.2352 13.6258 17.5854 13.6258 18.0171ZM13.6258 0.781909C13.6258 1.2136 13.261 1.56382 12.8113 1.56382C12.3616 1.56382 11.9968 1.2136 11.9968 0.781909C11.9968 0.350215 12.3616 0 12.8113 0C13.261 0 13.6258 0.350215 13.6258 0.781909ZM25.5808 23.8166C25.5808 24.2483 25.216 24.5985 24.7663 24.5985C24.3159 24.5985 23.9518 24.2483 23.9518 23.8166C23.9518 23.3849 24.3159 23.0347 24.7663 23.0347C25.216 23.0347 25.5808 23.3849 25.5808 23.8166ZM7.62754 3.66118C7.62754 4.09287 7.26273 4.44309 6.81305 4.44309C6.36263 4.44309 5.99856 4.09287 5.99856 3.66118C5.99856 3.22948 6.36263 2.87927 6.81305 2.87927C7.26273 2.87927 7.62754 3.22948 7.62754 3.66118ZM19.6244 3.66118C19.6244 4.09287 19.2596 4.44309 18.8099 4.44309C18.3595 4.44309 17.9954 4.09287 17.9954 3.66118C17.9954 3.22948 18.3595 2.87927 18.8099 2.87927C19.2596 2.87927 19.6244 3.22948 19.6244 3.66118Z" fill="#3949E7"/>
<path fill-rule="evenodd" clip-rule="evenodd" d="M25.5806 23.8166C25.5806 24.2483 25.2158 24.5985 24.7661 24.5985C24.3157 24.5985 23.9517 24.2483 23.9517 23.8166C23.9517 23.3849 24.3157 23.0347 24.7661 23.0347C25.2158 23.0347 25.5806 23.3849 25.5806 23.8166ZM55.6161 9.4199C55.6161 9.85159 55.2513 10.2018 54.8016 10.2018C54.352 10.2018 53.9872 9.85159 53.9872 9.4199C53.9872 8.9882 54.352 8.63799 54.8016 8.63799C55.2513 8.63799 55.6161 8.9882 55.6161 9.4199ZM43.6186 20.9371C43.6186 21.3688 43.2545 21.719 42.8041 21.719C42.3552 21.719 41.9896 21.3688 41.9896 20.9371C41.9896 20.5054 42.3552 20.1552 42.8041 20.1552C43.2545 20.1552 43.6186 20.5054 43.6186 20.9371ZM50.8928 6.54077C50.8928 7.6486 49.9569 8.547 48.8022 8.547C47.6482 8.547 46.7124 7.6486 46.7124 6.54077C46.7124 5.43295 47.6482 4.53454 48.8022 4.53454C49.9569 4.53454 50.8928 5.43295 50.8928 6.54077ZM44.8941 9.42004C44.8941 10.5279 43.9583 11.4263 42.8036 11.4263C41.6503 11.4263 40.7145 10.5279 40.7145 9.42004C40.7145 8.31222 41.6503 7.41381 42.8036 7.41381C43.9583 7.41381 44.8941 8.31222 44.8941 9.42004ZM49.6171 18.0578C49.6171 18.4895 49.2523 18.8398 48.8026 18.8398C48.3521 18.8398 47.9881 18.4895 47.9881 18.0578C47.9881 17.6262 48.3521 17.2759 48.8026 17.2759C49.2523 17.2759 49.6171 17.6262 49.6171 18.0578ZM50.1958 12.2994C50.1958 13.0377 49.5727 13.6366 48.8029 13.6366C48.0331 13.6366 47.4092 13.0377 47.4092 12.2994C47.4092 11.5604 48.0331 10.9614 48.8029 10.9614C49.5727 10.9614 50.1958 11.5604 50.1958 12.2994ZM31.621 3.66122C31.621 4.09291 31.257 4.44313 30.8065 4.44313C30.3569 4.44313 29.9921 4.09291 29.9921 3.66122C29.9921 3.22952 30.3569 2.87931 30.8065 2.87931C31.257 2.87931 31.621 3.22952 31.621 3.66122ZM49.6171 0.782092C49.6171 1.21379 49.2523 1.564 48.8026 1.564C48.3521 1.564 47.9881 1.21379 47.9881 0.782092C47.9881 0.350398 48.3521 0.000183105 48.8026 0.000183105C49.2523 0.000183105 49.6171 0.350398 49.6171 0.782092ZM55.6161 3.66122C55.6161 4.09291 55.2513 4.44313 54.8016 4.44313C54.352 4.44313 53.9872 4.09291 53.9872 3.66122C53.9872 3.22952 54.352 2.87931 54.8016 2.87931C55.2513 2.87931 55.6161 3.22952 55.6161 3.66122ZM72.4052 8.1632C72.5868 7.74437 72.6211 7.40273 72.5072 7.14686C72.4201 6.95174 72.2473 6.80451 71.9927 6.70945C71.3718 6.49217 70.8797 6.77592 70.5499 7.54353L68.233 12.9383L65.0376 7.42917C64.8484 7.08754 64.6214 6.8574 64.3615 6.74304C64.0972 6.62725 63.8054 6.64441 63.4949 6.7995C63.2068 6.9546 63.049 7.19332 63.0252 7.50922C63.0028 7.81584 63.0877 8.12246 63.2753 8.41978L67.2018 14.971C67.0284 15.4019 66.843 15.7271 66.6509 15.9373C66.4596 16.1467 66.2384 16.2482 65.9741 16.2482C65.8558 16.2482 65.7433 16.2374 65.6413 16.2167C65.5386 16.196 65.4173 16.1588 65.2803 16.1066C65.1343 16.0509 65.0338 16.0173 64.9802 16.0073C64.3891 15.8222 63.9863 15.9816 63.7927 16.4697C63.5768 17.0236 63.7868 17.4725 64.4174 17.8027C64.8321 18.0243 65.3904 18.1365 66.0761 18.1365C66.8385 18.1365 67.4743 17.8577 67.9657 17.3088C68.4481 16.7692 68.9618 15.8908 69.4919 14.6986L72.4052 8.1632ZM75.5926 17.9739C75.9269 17.9739 76.1949 17.8738 76.3878 17.6765C76.5806 17.4807 76.6781 17.2248 76.6781 16.9161V13.113H81.9239V16.9161C81.9239 17.2241 82.0184 17.48 82.2046 17.6758C82.3922 17.8738 82.6632 17.9739 83.0094 17.9739C83.3444 17.9739 83.6117 17.8738 83.8045 17.6765C83.9973 17.4807 84.0941 17.2248 84.0941 16.9161V7.69898C84.0941 7.39022 83.9973 7.13221 83.8053 6.93065C83.6117 6.72696 83.3444 6.62404 83.0094 6.62404C82.6632 6.62404 82.3914 6.72767 82.2038 6.93137C82.0185 7.13221 81.9239 7.39022 81.9239 7.69898V11.2412H76.6781V7.69898C76.6781 7.39022 76.5806 7.13149 76.3885 6.93065C76.1949 6.72696 75.9269 6.62404 75.5926 6.62404C75.2464 6.62404 74.9747 6.72767 74.7871 6.93137C74.6009 7.13292 74.5071 7.39094 74.5071 7.69898V16.9161C74.5071 17.2241 74.6017 17.48 74.7878 17.6758C74.9754 17.8738 75.2464 17.9739 75.5926 17.9739ZM88.2077 17.9739C88.5562 17.9739 88.8934 17.7737 89.2121 17.3778L94.5904 10.3242V16.9161C94.5904 17.2134 94.6842 17.4664 94.8703 17.6673C95.0579 17.8702 95.3342 17.9739 95.6923 17.9739C96.0392 17.9739 96.3072 17.8738 96.4896 17.6751C96.6698 17.4793 96.7606 17.2241 96.7606 16.9161V7.69898C96.7606 6.98569 96.4129 6.62404 95.7265 6.62404C95.3319 6.62404 94.9835 6.81916 94.6879 7.20439L89.3439 14.3045V7.69898C89.3439 7.39094 89.2493 7.13292 89.0639 6.93137C88.8756 6.72767 88.6046 6.62404 88.2584 6.62404C87.9003 6.62404 87.6263 6.72767 87.4439 6.93208C87.2645 7.13292 87.1729 7.39094 87.1729 7.69898V16.9161C87.1729 17.2463 87.2652 17.5079 87.4461 17.6923C87.6285 17.8788 87.8846 17.9739 88.2077 17.9739ZM105.67 15.9178C105.26 16.1801 104.638 16.3131 103.821 16.3131C103.087 16.3131 102.45 16.2823 101.925 16.223V12.9667H103.803C105.466 12.9667 106.274 13.5092 106.274 14.6235C106.274 15.226 106.071 15.6612 105.67 15.9178ZM103.583 11.3715H101.925V8.37604C102.439 8.32673 102.94 8.30171 103.414 8.30171C104.963 8.30171 105.715 8.77414 105.715 9.74688C105.715 10.8397 105.018 11.3715 103.583 11.3715ZM106.508 11.8975C106.922 11.6859 107.259 11.38 107.512 10.9848C107.794 10.5424 107.936 10.0599 107.936 9.55176C107.936 7.55554 106.478 6.54277 103.6 6.54277C102.585 6.54277 101.664 6.60924 100.862 6.73932C100.184 6.85368 99.8389 7.24177 99.8389 7.8936V16.7698C99.8389 17.4123 100.178 17.784 100.846 17.8755C101.647 17.9948 102.619 18.0548 103.736 18.0548C106.894 18.0548 108.495 16.8734 108.495 14.5427C108.495 13.8909 108.302 13.3219 107.922 12.8517C107.574 12.4207 107.099 12.1005 106.508 11.8975ZM118.811 17.7202C119 17.5508 119.096 17.3243 119.096 17.0462C119.096 16.7575 119 16.5252 118.811 16.3551C118.624 16.1871 118.371 16.1021 118.062 16.1021H113.237V13.0809H116.943C117.266 13.0809 117.524 12.9923 117.711 12.8186C117.899 12.6435 117.995 12.4141 117.995 12.1368C117.995 11.8473 117.899 11.6172 117.71 11.4535C117.523 11.2905 117.264 11.2084 116.943 11.2084H113.237V8.49669H117.892C118.202 8.49669 118.455 8.41092 118.642 8.24296C118.831 8.07357 118.926 7.847 118.926 7.56898C118.926 7.27951 118.831 7.04723 118.642 6.87784C118.455 6.70988 118.202 6.62411 117.892 6.62411H112.168C111.823 6.62411 111.549 6.72703 111.355 6.93073C111.164 7.13156 111.066 7.39029 111.066 7.69906V16.8997C111.066 17.2085 111.166 17.4672 111.365 17.668C111.564 17.871 111.84 17.9739 112.185 17.9739H118.062C118.371 17.9739 118.624 17.8889 118.811 17.7202ZM123.413 8.47203C123.884 8.41271 124.357 8.38269 124.817 8.38269C126.377 8.38269 127.136 8.99378 127.136 10.251C127.136 11.5954 126.338 12.2486 124.699 12.2486C124.162 12.2486 123.73 12.2301 123.413 12.1922V8.47203ZM129.408 10.2024C129.408 8.95018 128.997 8.01675 128.187 7.42639C127.382 6.84031 126.265 6.54299 124.868 6.54299C123.874 6.54299 122.993 6.61446 122.247 6.75526C121.581 6.88105 121.243 7.2863 121.243 7.95886V16.9158C121.243 17.2238 121.337 17.4797 121.523 17.6763C121.711 17.8735 121.982 17.9736 122.328 17.9736C122.663 17.9736 122.93 17.8742 123.123 17.677C123.316 17.4804 123.413 17.2253 123.413 16.9158V14.0026C123.751 14.049 124.223 14.0726 124.817 14.0726C126.17 14.0726 127.285 13.7446 128.129 13.0992C128.978 12.4495 129.408 11.4746 129.408 10.2024ZM138.956 15.5743C138.147 16.0324 137.349 16.264 136.586 16.264C135.63 16.264 134.83 15.9087 134.21 15.2069C133.586 14.5014 133.269 13.518 133.269 12.2829C133.269 11.0901 133.564 10.1216 134.143 9.40546C135.086 8.2426 136.638 8.01461 138.73 8.78508C139.434 9.03666 139.897 8.93303 140.104 8.49061C140.345 7.99316 140.2 7.56576 139.674 7.22126C138.921 6.71738 137.854 6.46151 136.502 6.46151C134.785 6.46151 133.422 6.99755 132.453 8.0532C131.487 9.10671 130.997 10.5347 130.997 12.2994C130.997 14.0848 131.458 15.5178 132.368 16.5599C133.281 17.6062 134.649 18.1365 136.434 18.1365C137.842 18.1365 139.019 17.8092 139.931 17.1638C140.225 16.9494 140.407 16.7014 140.473 16.4269C140.539 16.1475 140.492 15.9045 140.335 15.7079C140.034 15.2912 139.566 15.2412 138.956 15.5743ZM151.386 6.62432C150.993 6.62432 150.643 6.81944 150.348 7.20468L145.004 14.3048V7.69855C145.004 7.39122 144.91 7.13249 144.725 6.93094C144.536 6.72796 144.265 6.62432 143.919 6.62432C143.561 6.62432 143.287 6.72796 143.104 6.93165C142.924 7.13321 142.834 7.39122 142.834 7.69855V16.9156C142.834 17.2466 142.925 17.5074 143.106 17.6926C143.288 17.8791 143.545 17.9742 143.868 17.9742C144.217 17.9742 144.554 17.774 144.872 17.3774L150.25 10.3245V16.9156C150.25 17.2137 150.345 17.466 150.53 17.6668C150.718 17.8705 150.995 17.9742 151.353 17.9742C151.699 17.9742 151.967 17.8734 152.15 17.6747C152.33 17.4796 152.421 17.2237 152.421 16.9156V7.69855C152.421 6.98597 152.073 6.62432 151.386 6.62432ZM164.427 7.55225C164.427 7.26279 164.33 7.03336 164.141 6.86897C163.954 6.70673 163.696 6.62454 163.375 6.62454H155.349C155.039 6.62454 154.787 6.70673 154.599 6.86897C154.41 7.03336 154.314 7.26279 154.314 7.55225C154.314 7.82956 154.409 8.05899 154.598 8.2341C154.785 8.40849 155.038 8.4964 155.349 8.4964H158.277V16.9159C158.277 17.2239 158.371 17.4798 158.558 17.6756C158.745 17.8736 159.015 17.9737 159.362 17.9737C159.708 17.9737 159.979 17.8736 160.166 17.6763C160.353 17.4798 160.447 17.2246 160.447 16.9159V8.4964H163.375C163.697 8.4964 163.955 8.40849 164.143 8.2341C164.331 8.05899 164.427 7.82956 164.427 7.55225ZM173.315 16.1018H168.491V13.0806H172.198C172.519 13.0806 172.778 12.9927 172.965 12.8183C173.153 12.6432 173.249 12.4145 173.249 12.1365C173.249 11.847 173.153 11.6169 172.964 11.4532C172.776 11.291 172.518 11.2088 172.198 11.2088H168.491V8.4964H173.145C173.456 8.4964 173.708 8.41135 173.896 8.24267C174.084 8.074 174.18 7.84672 174.18 7.56869C174.18 7.27923 174.084 7.04766 173.896 6.87827C173.708 6.70959 173.456 6.62454 173.145 6.62454H167.422C167.076 6.62454 166.802 6.72746 166.609 6.93044C166.417 7.13199 166.32 7.39001 166.32 7.69877V16.8994C166.32 17.2089 166.42 17.4669 166.618 17.6685C166.817 17.8714 167.093 17.9737 167.439 17.9737H173.315C173.625 17.9737 173.877 17.8886 174.065 17.7199C174.254 17.5505 174.349 17.324 174.349 17.0459C174.349 16.7572 174.254 16.5249 174.065 16.3555C173.877 16.1868 173.625 16.1018 173.315 16.1018ZM185.255 7.55225C185.255 7.26279 185.158 7.03336 184.969 6.86897C184.782 6.70673 184.524 6.62454 184.203 6.62454H176.177C175.868 6.62454 175.615 6.70673 175.428 6.86897C175.238 7.03336 175.142 7.26279 175.142 7.55225C175.142 7.82956 175.238 8.05899 175.426 8.2341C175.613 8.40849 175.866 8.4964 176.177 8.4964H179.105V16.9159C179.105 17.2239 179.199 17.4798 179.386 17.6756C179.573 17.8736 179.843 17.9737 180.19 17.9737C180.537 17.9737 180.807 17.8736 180.994 17.6763C181.181 17.4798 181.275 17.2246 181.275 16.9159V8.4964H184.203C184.526 8.4964 184.784 8.40849 184.972 8.2341C185.159 8.05899 185.255 7.82956 185.255 7.55225ZM201.477 16.9159V7.69884C201.477 6.98555 201.128 6.62461 200.442 6.62461C200.049 6.62461 199.699 6.81973 199.404 7.20425L194.06 14.305V7.69884C194.06 7.39079 193.966 7.13278 193.78 6.93123C193.592 6.72753 193.32 6.62461 192.975 6.62461C192.617 6.62461 192.342 6.72753 192.16 6.93194C191.98 7.13349 191.89 7.39151 191.89 7.69884V16.9159C191.89 17.2461 191.981 17.507 192.162 17.6928C192.344 17.8794 192.601 17.9737 192.924 17.9737C193.272 17.9737 193.61 17.7736 193.928 17.3776L199.306 10.324V16.9159C199.306 17.2133 199.4 17.4663 199.585 17.6671C199.773 17.8708 200.05 17.9737 200.408 17.9737C200.755 17.9737 201.023 17.8737 201.206 17.675C201.385 17.4791 201.477 17.224 201.477 16.9159ZM212.431 6.62432H204.405C204.096 6.62432 203.843 6.70652 203.655 6.86876C203.466 7.03315 203.37 7.26329 203.37 7.55204C203.37 7.83006 203.466 8.05878 203.653 8.23388C203.841 8.40828 204.094 8.49619 204.405 8.49619H207.333V16.9156C207.333 17.2244 207.427 17.4796 207.613 17.6761C207.801 17.8741 208.072 17.9742 208.417 17.9742C208.764 17.9742 209.035 17.8741 209.222 17.6761C209.408 17.4796 209.503 17.2244 209.503 16.9156V8.49619H212.431C212.753 8.49619 213.011 8.40828 213.199 8.23388C213.387 8.05878 213.482 7.83006 213.482 7.55204C213.482 7.26329 213.386 7.03315 213.197 6.86876C213.01 6.70652 212.752 6.62432 212.431 6.62432ZM225.148 6.62432C224.73 6.62432 224.374 6.84231 224.09 7.27329L220.762 12.4343L217.367 7.28973C217.084 6.84803 216.711 6.62432 216.258 6.62432C215.959 6.62432 215.711 6.71581 215.523 6.89592C215.335 7.07603 215.24 7.35191 215.24 7.71499V16.9156C215.24 17.6182 215.583 17.9742 216.258 17.9742C216.933 17.9742 217.276 17.6182 217.276 16.9156V10.6082L219.654 14.1875C219.915 14.5856 220.254 14.7879 220.661 14.7879C221.057 14.7879 221.39 14.5799 221.651 14.1711L223.995 10.5332V16.9156C223.995 17.2244 224.093 17.4803 224.285 17.6768C224.479 17.8741 224.746 17.9742 225.08 17.9742C225.426 17.9742 225.697 17.8741 225.885 17.6761C226.071 17.4803 226.166 17.2244 226.166 16.9156V7.69855C226.166 7.3805 226.078 7.11963 225.904 6.92379C225.727 6.7251 225.473 6.62432 225.148 6.62432Z" fill="#3949E7"/>
<mask id="mask0" mask-type="alpha" maskUnits="userSpaceOnUse" x="228" y="6" width="12" height="13">
<path d="M240 18.1365V6.46188H228.737V18.1365H240Z" fill="#3949E7"/>
</mask>
<g mask="url(#mask0)">
<path fill-rule="evenodd" clip-rule="evenodd" d="M236.854 15.161C236.277 15.8929 235.438 16.2638 234.36 16.2638C233.293 16.2638 232.46 15.8929 231.884 15.161C231.303 14.4227 231.008 13.4599 231.008 12.2992C231.008 11.1385 231.303 10.1758 231.884 9.43675C232.46 8.70559 233.293 8.33393 234.36 8.33393C235.438 8.33393 236.277 8.70559 236.854 9.43675C237.434 10.1751 237.728 11.1385 237.728 12.2992C237.728 13.4599 237.434 14.4234 236.854 15.161ZM238.527 8.11022C237.547 7.01669 236.146 6.46207 234.36 6.46207C232.575 6.46207 231.175 7.01669 230.201 8.11022C229.23 9.20161 228.737 10.611 228.737 12.2992C228.737 13.9981 229.23 15.4104 230.201 16.4961C231.176 17.5846 232.575 18.1364 234.36 18.1364C236.145 18.1364 237.547 17.5846 238.527 16.4961C239.505 15.4104 240.001 13.9981 240.001 12.2992C240.001 10.611 239.505 9.20161 238.527 8.11022Z" fill="#3949E7"/>
</g>
</svg>
