<svg width="19" height="19" viewBox="0 0 19 19" fill="none" xmlns="http://www.w3.org/2000/svg">
<path d="M10.2159 10.2159L8.78405 8.78405L6.05242 12.9476L10.2159 10.2159ZM9.5 0C4.25202 0 0 4.25202 0 9.5C0 14.748 4.25202 19 9.5 19C14.748 19 19 14.748 19 9.5C19 4.25202 14.748 0 9.5 0ZM15.4701 6.69558L16.0362 6.46077C16.0734 6.44539 16.1133 6.4375 16.1535 6.43753C16.1938 6.43757 16.2336 6.44553 16.2708 6.46097C16.308 6.47641 16.3418 6.49902 16.3702 6.52751C16.3986 6.556 16.4212 6.58981 16.4365 6.62702C16.452 6.66421 16.4599 6.70409 16.46 6.74437C16.46 6.78464 16.4521 6.82453 16.4367 6.86174C16.4213 6.89896 16.3987 6.93277 16.3702 6.96124C16.3417 6.98972 16.3079 7.0123 16.2707 7.0277L15.7056 7.26175C15.6306 7.29283 15.5462 7.29281 15.4712 7.2617C15.3961 7.2306 15.3364 7.17096 15.3053 7.09589C15.2742 7.02095 15.2741 6.93672 15.3049 6.86168C15.3358 6.78664 15.3952 6.7269 15.4701 6.69558ZM11.7382 3.29435L11.9727 2.72819C12.004 2.65332 12.0637 2.59394 12.1388 2.56306C12.2138 2.53218 12.298 2.53233 12.373 2.56347C12.4481 2.59457 12.5077 2.65421 12.5388 2.72928C12.5699 2.80434 12.5699 2.88869 12.5389 2.96377L12.304 3.52994C12.2729 3.60501 12.2133 3.66465 12.1382 3.69576C12.0632 3.72686 11.9788 3.72688 11.9037 3.69581C11.8665 3.68038 11.8326 3.65774 11.8041 3.62919C11.7756 3.60064 11.753 3.56675 11.7376 3.52945C11.7222 3.49215 11.7144 3.45218 11.7145 3.41184C11.7146 3.3715 11.7227 3.33157 11.7382 3.29435ZM9.5 1.99194C9.58128 1.99194 9.65922 2.02422 9.71669 2.08169C9.77417 2.13916 9.80645 2.21711 9.80645 2.29839V2.91129C9.80645 2.99257 9.77417 3.07051 9.71669 3.12798C9.65922 3.18546 9.58128 3.21774 9.5 3.21774C9.41872 3.21774 9.34078 3.18546 9.28331 3.12798C9.22583 3.07051 9.19355 2.99257 9.19355 2.91129V2.29839C9.19355 2.21711 9.22583 2.13916 9.28331 2.08169C9.34078 2.02422 9.41872 1.99194 9.5 1.99194ZM6.62702 2.56347C6.66421 2.54802 6.70409 2.54006 6.74437 2.54004C6.78464 2.54002 6.82453 2.54794 6.86174 2.56334C6.89896 2.57875 6.93277 2.60134 6.96124 2.62982C6.98972 2.6583 7.0123 2.69212 7.0277 2.72933L7.26175 3.29435C7.27807 3.33169 7.28678 3.37191 7.28737 3.41265C7.28796 3.45339 7.28042 3.49384 7.26519 3.53163C7.24996 3.56943 7.22735 3.6038 7.19868 3.63275C7.17 3.6617 7.13584 3.68464 7.09819 3.70023C7.06055 3.71582 7.02017 3.72374 6.97942 3.72354C6.93868 3.72333 6.89838 3.71501 6.86089 3.69904C6.8234 3.68308 6.78947 3.6598 6.76109 3.63057C6.73271 3.60133 6.71044 3.56673 6.69558 3.52879L6.46077 2.96262C6.43008 2.88763 6.43034 2.80353 6.46149 2.72872C6.49265 2.65392 6.55216 2.5945 6.62702 2.56347ZM4.19149 4.19111C4.24896 4.13368 4.32687 4.10142 4.40811 4.10142C4.48936 4.10142 4.56727 4.13368 4.62474 4.19111L5.05645 4.62435C5.11353 4.68177 5.14557 4.75944 5.14557 4.8404C5.14557 4.92136 5.11353 4.99903 5.05645 5.05645C4.99899 5.11388 4.92107 5.14614 4.83983 5.14614C4.75859 5.14614 4.68067 5.11388 4.62321 5.05645L4.18996 4.62321C4.13304 4.56564 4.1012 4.48788 4.10142 4.40692C4.10164 4.32596 4.13388 4.24837 4.19111 4.19111H4.19149ZM1.99194 9.5C1.99194 9.41872 2.02422 9.34078 2.08169 9.28331C2.13916 9.22583 2.21711 9.19355 2.29839 9.19355H2.91129C2.99257 9.19355 3.07051 9.22583 3.12798 9.28331C3.18546 9.34078 3.21774 9.41872 3.21774 9.5C3.21774 9.58128 3.18546 9.65922 3.12798 9.71669C3.07051 9.77417 2.99257 9.80645 2.91129 9.80645H2.29839C2.21711 9.80645 2.13916 9.77417 2.08169 9.71669C2.02422 9.65922 1.99194 9.58128 1.99194 9.5ZM3.52994 12.3044L2.96377 12.5392C2.92657 12.5546 2.88671 12.5625 2.84646 12.5625C2.8062 12.5624 2.76635 12.5545 2.72918 12.539C2.69201 12.5236 2.65824 12.501 2.62981 12.4725C2.60137 12.444 2.57883 12.4102 2.56347 12.373C2.54802 12.3358 2.54006 12.2959 2.54004 12.2556C2.54002 12.2154 2.54794 12.1755 2.56334 12.1383C2.57875 12.101 2.60134 12.0672 2.62982 12.0388C2.6583 12.0103 2.69212 11.9877 2.72933 11.9723L3.29435 11.7382C3.36944 11.7072 3.45378 11.7072 3.52885 11.7383C3.60392 11.7694 3.66356 11.829 3.69466 11.9041C3.7258 11.979 3.72594 12.0633 3.69506 12.1383C3.66418 12.2134 3.6048 12.2731 3.52994 12.3044ZM3.69581 7.09474C3.68052 7.13215 3.65799 7.16617 3.6295 7.19484C3.60102 7.2235 3.56714 7.24625 3.52983 7.26178C3.49252 7.2773 3.4525 7.28529 3.41209 7.28528C3.37168 7.28528 3.33166 7.27728 3.29435 7.26175L2.72819 7.02732C2.65332 6.996 2.59394 6.93627 2.56306 6.86122C2.53218 6.78618 2.53233 6.70195 2.56347 6.62702C2.59457 6.55195 2.65421 6.4923 2.72928 6.4612C2.80434 6.4301 2.88869 6.43008 2.96377 6.46115L3.52994 6.69597C3.60491 6.72707 3.66448 6.78665 3.69558 6.86162C3.72668 6.9366 3.72676 7.02085 3.69581 7.09589V7.09474ZM7.26175 15.7056L7.02732 16.2718C7.01193 16.309 6.98936 16.3428 6.9609 16.3713C6.93244 16.3998 6.89865 16.4224 6.86146 16.4378C6.82427 16.4532 6.78441 16.4612 6.74415 16.4612C6.70389 16.4612 6.66402 16.4533 6.62682 16.4379C6.58962 16.4225 6.55582 16.3999 6.52734 16.3715C6.49886 16.343 6.47627 16.3092 6.46085 16.272C6.44543 16.2348 6.43749 16.195 6.43747 16.1547C6.43746 16.1144 6.44537 16.0746 6.46077 16.0374L6.69558 15.4712C6.71044 15.4333 6.73271 15.3987 6.76109 15.3694C6.78947 15.3402 6.8234 15.3169 6.86089 15.301C6.89838 15.285 6.93868 15.2767 6.97942 15.2765C7.02017 15.2763 7.06055 15.2842 7.09819 15.2998C7.13584 15.3154 7.17 15.3383 7.19868 15.3672C7.22735 15.3962 7.24996 15.4306 7.26519 15.4684C7.28042 15.5062 7.28796 15.5466 7.28737 15.5874C7.28678 15.6281 7.27807 15.6683 7.26175 15.7056ZM9.80645 16.7016C9.80645 16.7829 9.77417 16.8608 9.71669 16.9183C9.65922 16.9758 9.58128 17.0081 9.5 17.0081C9.41872 17.0081 9.34078 16.9758 9.28331 16.9183C9.22583 16.8608 9.19355 16.7829 9.19355 16.7016V16.0887C9.19355 16.0074 9.22583 15.9295 9.28331 15.872C9.34078 15.8145 9.41872 15.7823 9.5 15.7823C9.58128 15.7823 9.65922 15.8145 9.71669 15.872C9.77417 15.9295 9.80645 16.0074 9.80645 16.0887V16.7016ZM12.373 16.4365C12.3358 16.452 12.2959 16.4599 12.2556 16.46C12.2154 16.46 12.1755 16.4521 12.1383 16.4367C12.101 16.4213 12.0672 16.3987 12.0388 16.3702C12.0103 16.3417 11.9877 16.3079 11.9723 16.2707L11.7382 15.7056C11.7072 15.6306 11.7072 15.5462 11.7383 15.4712C11.7694 15.3961 11.829 15.3364 11.9041 15.3053C11.9792 15.2743 12.0635 15.2743 12.1386 15.3054C12.2137 15.3365 12.2733 15.3961 12.3044 15.4712L12.5392 16.0374C12.5699 16.1124 12.5697 16.1965 12.5385 16.2713C12.5074 16.3461 12.4478 16.4055 12.373 16.4365ZM14.8085 14.8089C14.751 14.8663 14.6731 14.8986 14.5919 14.8986C14.5106 14.8986 14.4327 14.8663 14.3753 14.8089L13.9435 14.3756C13.8865 14.3182 13.8544 14.2406 13.8544 14.1596C13.8544 14.0786 13.8865 14.001 13.9435 13.9435C14.001 13.8861 14.0789 13.8539 14.1602 13.8539C14.2414 13.8539 14.3193 13.8861 14.3768 13.9435L14.81 14.3768C14.867 14.4344 14.8988 14.5121 14.8986 14.5931C14.8984 14.674 14.8661 14.7516 14.8089 14.8089H14.8085ZM10.6588 10.6588L3.92028 15.0797L8.34123 8.34123L15.0797 3.92028L10.6588 10.6588ZM16.4365 12.373C16.4054 12.4481 16.3458 12.5077 16.2707 12.5388C16.1957 12.5699 16.1113 12.5699 16.0362 12.5389L15.4701 12.304C15.395 12.2729 15.3353 12.2133 15.3042 12.1382C15.2731 12.0632 15.2731 11.9788 15.3042 11.9037C15.3196 11.8665 15.3423 11.8326 15.3708 11.8041C15.3994 11.7756 15.4333 11.753 15.4706 11.7376C15.5079 11.7222 15.5478 11.7144 15.5882 11.7145C15.6285 11.7146 15.6684 11.7227 15.7056 11.7382L16.2718 11.9727C16.3467 12.004 16.4061 12.0637 16.4369 12.1388C16.4678 12.2138 16.4677 12.298 16.4365 12.373ZM16.7016 9.80645H16.0887C16.0074 9.80645 15.9295 9.77417 15.872 9.71669C15.8145 9.65922 15.7823 9.58128 15.7823 9.5C15.7823 9.41872 15.8145 9.34078 15.872 9.28331C15.9295 9.22583 16.0074 9.19355 16.0887 9.19355H16.7016C16.7829 9.19355 16.8608 9.22583 16.9183 9.28331C16.9758 9.34078 17.0081 9.41872 17.0081 9.5C17.0081 9.58128 16.9758 9.65922 16.9183 9.71669C16.8608 9.77417 16.7829 9.80645 16.7016 9.80645Z" fill="#337AB7"/>
</svg>
